<svg xmlns="http://www.w3.org/2000/svg" viewBox="0 0 105 106" width="85" height="86"><path fill="#059669" fill-rule="evenodd" d="M75.4 13.1a111.87 111.87 0 0 0-18.85 11.89c4.34 3.2 8.7 6.95 12.9 11.15 4.2 4.2 7.95 8.56 11.16 12.9 5.08-6.64 9.1-13.06 11.89-18.84 2.56-5.31 3.98-9.87 4.31-13.43.35-3.58-.44-5.53-1.45-6.54-1-1-2.95-1.8-6.54-1.45-3.55.34-8.11 1.75-13.43 4.32zm-3.48-7.2c-6.96 3.35-14.6 8.24-22.35 14.38a70.31 70.31 0 0 0-9.37-4.83c-4.6-1.92-9.1-3.08-13.14-3.14-4.07-.06-8.03 1-10.95 3.92-2.92 2.91-3.98 6.88-3.92 10.94.06 4.05 1.22 8.54 3.14 13.14a70.31 70.31 0 0 0 4.84 9.38c-6.14 7.75-11.04 15.39-14.4 22.34C3 77.82 1.18 83.33.7 88.18c-.46 4.8.39 9.58 3.76 12.95 3.37 3.38 8.15 4.22 12.96 3.76 4.84-.46 10.36-2.28 16.14-5.07 6.96-3.36 14.6-8.25 22.35-14.4a70.3 70.3 0 0 0 9.37 4.84c4.6 1.92 9.1 3.08 13.14 3.14 4.07.06 8.03-1 10.95-3.92 2.92-2.91 3.98-6.88 3.92-10.94-.06-4.05-1.22-8.54-3.14-13.14a70.3 70.3 0 0 0-4.84-9.38c6.14-7.75 11.04-15.39 14.4-22.34 2.78-5.79 4.6-11.3 5.07-16.15.46-4.8-.39-9.58-3.76-12.95C97.65 1.2 92.87.36 88.06.82c-4.84.46-10.36 2.28-16.14 5.07zm-49.2 31.33a58.5 58.5 0 0 0 2.9 5.92 186.63 186.63 0 0 1 17.41-17.42 58.47 58.47 0 0 0-5.92-2.9c-4.03-1.68-7.48-2.48-10.17-2.52-2.68-.04-4.26.66-5.17 1.57-.92.92-1.62 2.5-1.58 5.18.04 2.69.84 6.14 2.52 10.17zM39.7 39.8a177.02 177.02 0 0 0-9.62 10.4c3.19 4.53 7.09 9.18 11.6 13.7 4.53 4.52 9.17 8.41 13.7 11.6A177.02 177.02 0 0 0 75.4 55.5 105.42 105.42 0 0 0 63.8 41.8a105.42 105.42 0 0 0-13.7-11.6 177.07 177.07 0 0 0-10.4 9.61zm-26.72 35.7c2.79-5.77 6.81-12.2 11.9-18.84 3.2 4.34 6.95 8.7 11.15 12.9 4.2 4.2 8.56 7.94 12.9 11.15a111.86 111.86 0 0 1-18.84 11.9c-5.32 2.56-9.88 3.97-13.43 4.31-3.59.34-5.53-.44-6.54-1.45-1.01-1.01-1.8-2.96-1.46-6.54.34-3.56 1.76-8.11 4.32-13.43zm55.39 7.37c-1.9-.8-3.88-1.76-5.93-2.9a186.59 186.59 0 0 0 17.42-17.42 58.48 58.48 0 0 1 2.9 5.92c1.69 4.03 2.49 7.48 2.53 10.18.04 2.67-.66 4.25-1.58 5.17-.91.91-2.5 1.61-5.17 1.57-2.7-.04-6.14-.84-10.17-2.52zM52.6 58a6 6 0 1 0 0-12 6 6 0 0 0 0 12z"></path></svg>