<svg width="997" height="796" viewBox="0 0 997 796" fill="none" xmlns="http://www.w3.org/2000/svg">
<mask id="mask0_74_4805" style="mask-type:alpha" maskUnits="userSpaceOnUse" x="0" y="0" width="997" height="796">
<rect width="997" height="796" fill="#0C0C23" fill-opacity="0.4"/>
</mask>
<g mask="url(#mask0_74_4805)">
<mask id="mask1_74_4805" style="mask-type:alpha" maskUnits="userSpaceOnUse" x="103" y="0" width="894" height="796">
<rect x="103" width="894" height="796" fill="url(#paint0_radial_74_4805)"/>
</mask>
<g mask="url(#mask1_74_4805)">
<path d="M430.615 816.012C392.313 821.785 353.546 824.822 314.615 824.892C314.157 824.894 313.697 824.894 313.239 824.894C146.197 824.892 4.32716 770.155 -95.7781 679.32C-195.882 588.478 -254.249 461.543 -254.253 316.957C-254.253 280.367 -250.514 242.646 -242.763 204.092C-208.219 32.265 -100.512 -123.516 45.7444 -236.415C191.996 -349.314 376.767 -419.308 565.326 -419.644L565.324 -420.854L564.133 -420.639C585.613 -301.482 613.412 -180.2 646.77 -60.2076L647.936 -60.5318L647.934 -61.7418C522.168 -61.5127 399.019 -14.8505 301.529 60.4031C204.042 135.658 132.186 239.524 109.117 354.244C103.944 379.983 101.445 405.179 101.445 429.624C101.441 511.445 129.444 584.885 178.678 642.331C227.908 699.778 298.357 741.23 383.205 759.178L383.707 756.811C299.33 738.96 229.378 697.772 180.515 640.757C131.654 583.738 103.868 510.892 103.864 429.624C103.864 405.343 106.346 380.309 111.491 354.722C134.414 240.686 205.909 137.27 303.007 62.318C400.102 -12.6338 522.771 -59.1007 647.938 -59.3217L649.527 -59.325L649.102 -60.8561C615.765 -180.776 587.98 -301.989 566.515 -421.068L566.336 -422.065L565.321 -422.064C376.162 -421.72 190.913 -351.531 44.265 -238.33C-102.378 -125.128 -210.447 31.1034 -245.135 203.615C-252.918 242.32 -256.673 280.202 -256.673 316.957C-256.678 462.198 -198 589.837 -97.4043 681.112C3.18979 772.391 145.671 827.315 313.239 827.314C313.699 827.314 314.158 827.314 314.62 827.312C353.674 827.242 392.559 824.193 430.976 818.405L430.615 816.012Z" fill="url(#paint1_linear_74_4805)"/>
<path d="M536.389 770.144C536.234 770.144 536.077 770.144 535.919 770.144C518.658 770.144 488.221 768.43 458.302 765.904C428.388 763.379 398.933 760.035 383.705 756.809L383.205 759.178C398.676 762.448 428.122 765.783 458.099 768.314C488.071 770.844 518.518 772.562 535.919 772.564C536.079 772.564 536.236 772.564 536.392 772.562L536.389 770.144Z" fill="url(#paint2_linear_74_4805)"/>
<path d="M565.324 -420.854L564.133 -420.639C585.613 -301.482 613.412 -180.2 646.77 -60.2076L647.936 -60.5318L647.934 -61.7418C522.168 -61.5127 399.019 -14.8505 301.529 60.4031C204.042 135.658 132.186 239.524 109.117 354.244L110.305 354.483L110.828 353.393C-5.59475 297.525 -124.837 246.831 -243.528 202.719L-243.949 203.853L-242.763 204.092C-208.219 32.265 -100.512 -123.516 45.7444 -236.415C191.996 -349.314 376.767 -419.308 565.326 -419.644L565.324 -420.854L565.321 -422.064C376.162 -421.72 190.913 -351.531 44.265 -238.33C-102.378 -125.128 -210.447 31.1034 -245.135 203.615L-245.338 204.628L-244.37 204.988C-125.75 249.073 -6.57557 299.738 109.781 355.574L111.184 356.248L111.491 354.722C134.414 240.686 205.909 137.27 303.007 62.318C400.102 -12.6338 522.771 -59.1007 647.938 -59.3217L649.527 -59.325L649.102 -60.8561C615.765 -180.776 587.98 -301.989 566.515 -421.068L566.336 -422.065L565.321 -422.064L565.324 -420.854Z" fill="url(#paint3_linear_74_4805)"/>
<path d="M201.984 -334.489C266.97 -225.659 335.693 -114.089 406.223 -2.92154L408.267 -4.21693C337.747 -115.367 269.035 -226.919 204.062 -335.73L201.985 -334.489" fill="url(#paint4_linear_74_4805)"/>
<path d="M-88.0729 -110.061C11.7613 -28.1624 113.264 58.0746 213.571 146.227L215.168 144.408C114.842 56.2386 13.3182 -30.0146 -86.5369 -111.931L-88.0729 -110.061Z" fill="url(#paint5_linear_74_4805)"/>
<path d="M683.176 58.0135C576.182 58.2087 471.422 97.9046 388.489 161.923C305.559 225.941 244.429 314.302 224.801 411.908L227.173 412.385C246.657 315.462 307.427 227.553 389.968 163.838C472.506 100.121 576.785 60.6223 683.181 60.4336L683.176 58.0135Z" fill="url(#paint6_linear_74_4805)"/>
<path d="M722.055 176.838C632.532 177.001 544.888 210.215 475.504 263.772C406.123 317.331 354.974 391.259 338.549 472.938L340.92 473.416C357.2 392.42 407.989 318.943 476.982 265.689C545.972 212.43 633.137 179.414 722.06 179.258L722.055 176.838Z" fill="url(#paint7_linear_74_4805)"/>
<path d="M406.223 -2.92154C476.762 108.264 549.688 219.965 622.981 329.091L624.989 327.74C551.709 218.633 478.795 106.949 408.267 -4.21693L406.223 -2.92154Z" fill="url(#paint8_linear_74_4805)"/>
<path d="M213.569 146.227C313.895 234.389 413.859 325.192 510.69 416.116L512.347 414.351C415.496 323.409 315.512 232.588 215.168 144.408L213.569 146.227Z" fill="url(#paint9_linear_74_4805)"/>
<path d="M109.781 355.574C226.163 411.411 340.701 472.867 450.22 538.236L451.459 536.158C341.877 470.751 227.276 409.262 110.828 353.393L109.781 355.574Z" fill="url(#paint10_linear_74_4805)"/>
<path d="M224.796 411.934C221.173 432.081 219.445 451.596 219.445 470.42C219.437 563.475 261.703 639.635 325.837 692.44C389.97 745.252 475.954 774.779 563.562 774.78C577.401 774.78 591.279 774.043 605.118 772.544L604.858 770.139C591.106 771.628 577.314 772.36 563.562 772.36C476.496 772.364 391.027 742.995 327.375 690.571C263.722 638.14 221.873 562.723 221.865 470.42C221.865 451.744 223.58 432.375 227.177 412.362L224.796 411.934Z" fill="url(#paint11_linear_74_4805)"/>
<path d="M338.549 472.938C334.877 491.196 333.105 509.13 333.105 526.586C333.1 595.854 361.027 657.554 408.815 701.897C456.6 746.242 524.229 773.231 603.586 773.229C603.795 773.229 604.005 773.229 604.216 773.229L604.213 770.81C604.005 770.81 603.795 770.81 603.586 770.81C524.776 770.806 457.77 744.022 410.461 700.122C363.155 656.217 335.528 595.201 335.525 526.586C335.525 509.294 337.28 491.52 340.92 473.416L338.549 472.938Z" fill="url(#paint12_linear_74_4805)"/>
<path d="M130.058 564.612C243.324 588.17 355.03 620.316 462.081 660.166L462.925 657.898C355.758 618.004 243.935 585.826 130.552 562.243L130.058 564.612Z" fill="url(#paint13_linear_74_4805)"/>
<path d="M263.422 712.94C355.961 713.583 530.594 744.272 621.348 766.016L621.913 763.662C530.967 741.886 356.408 711.185 263.439 710.52L263.422 712.94Z" fill="url(#paint14_linear_74_4805)"/>
<path d="M622.981 329.091C696.984 439.274 764.271 536.6 838.24 640.46L840.209 639.056C766.254 535.213 698.983 437.91 624.989 327.74L622.981 329.091Z" fill="url(#paint15_linear_74_4805)"/>
<path d="M1025.27 289.129C1024.61 309.815 1022.18 331.017 1017.82 352.613C1014.48 369.287 1009.72 396.504 1004.01 423.425C998.299 450.336 991.619 476.985 984.505 492.3L986.715 493.318C993.975 477.598 1000.64 450.915 1006.38 423.929C1012.09 396.954 1016.85 369.71 1020.19 353.091C1024.56 331.367 1027.03 310.029 1027.69 289.206L1025.27 289.129Z" fill="url(#paint16_linear_74_4805)"/>
<path d="M1123.9 201.396L1123.04 200.53C1077.34 245.027 1041.94 296.12 1017.9 352.378L1019.01 352.852L1020.19 353.091C1025.37 327.352 1027.87 302.158 1027.87 277.713C1027.87 181.114 988.845 96.1994 921.924 35.4899C855.019 -25.226 760.261 -61.7452 648.849 -61.7436C648.544 -61.7436 648.237 -61.7435 647.933 -61.7419L647.936 -60.5318L649.102 -60.8561C615.765 -180.776 587.98 -301.989 566.515 -421.068L565.324 -420.854L565.326 -419.644C565.784 -419.644 566.24 -419.645 566.699 -419.645C733.741 -419.644 875.605 -364.908 975.712 -274.072C1075.82 -183.229 1134.19 -56.2954 1134.19 88.2924C1134.19 124.883 1130.46 162.604 1122.7 201.159L1123.9 201.396L1125.07 201.635C1132.87 162.93 1136.61 125.047 1136.61 88.2924C1136.63 -56.9504 1077.93 -184.589 977.342 -275.864C876.751 -367.144 734.267 -422.067 566.699 -422.065C566.239 -422.065 565.781 -422.064 565.321 -422.064L563.877 -422.06L564.133 -420.639C585.613 -301.482 613.412 -180.2 646.77 -60.2076L647.016 -59.3203L647.938 -59.3217C648.243 -59.3234 648.546 -59.3236 648.849 -59.3236C759.735 -59.322 853.874 -22.9898 920.311 37.2824C986.731 97.5595 1025.45 181.769 1025.45 277.713C1025.45 301.994 1022.97 327.027 1017.82 352.613L1015.51 364.136L1020.13 353.328C1044.02 297.375 1079.24 246.553 1124.73 202.264L1125.01 202.003L1125.07 201.635L1123.9 201.396Z" fill="url(#paint17_linear_74_4805)"/>
<path d="M1092.71 -113.667C1050.67 -31.4211 1018.74 55.1547 997.831 143.629L1000.19 144.186C1021.05 55.9049 1052.91 -30.4904 1094.86 -112.567L1092.71 -113.667Z" fill="url(#paint18_linear_74_4805)"/>
<path d="M892.206 -336.546C874.266 -227.513 864.989 -115.746 864.683 -4.39618L867.103 -4.3898C867.409 -115.609 876.67 -227.248 894.594 -336.152L892.206 -336.546Z" fill="url(#paint19_linear_74_4805)"/>
<path d="M765.463 294.776C721.584 178.736 682.437 59.0849 649.1 -60.8562L647.936 -60.5318L647.938 -59.3217C648.243 -59.3217 648.546 -59.3236 648.849 -59.3236C759.735 -59.322 853.874 -22.9898 920.311 37.2824C986.731 97.5595 1025.45 181.769 1025.45 277.713C1025.45 301.994 1022.97 327.028 1017.82 352.615L1020.21 353.091C1025.37 327.352 1027.87 302.158 1027.87 277.713C1027.87 181.114 988.845 96.1994 921.924 35.4899C855.019 -25.226 760.26 -61.745 648.849 -61.7418C648.544 -61.7418 648.239 -61.7419 647.933 -61.7419L646.343 -61.7385L646.77 -60.2076C680.125 59.8045 719.295 179.521 763.2 295.631L765.463 294.776Z" fill="url(#paint20_linear_74_4805)"/>
<path d="M986.796 493.047C991.523 469.529 993.814 445.362 993.814 421.046C993.814 332.361 963.354 241.67 909.372 173.079C855.39 104.495 777.799 58.0087 683.689 58.0135C683.518 58.0135 683.347 58.0135 683.176 58.0135L683.181 60.4336C683.35 60.4336 683.521 60.4336 683.689 60.4336C776.971 60.4384 853.825 106.454 907.468 174.576C961.095 242.694 991.394 332.913 991.394 421.046C991.394 445.21 989.119 469.218 984.424 492.569L986.796 493.047Z" fill="url(#paint21_linear_74_4805)"/>
<path d="M986.424 494.967C990.119 476.557 991.91 458.251 991.91 440.261C991.91 369.513 964.274 303.652 916.777 255.482C869.297 207.308 801.941 176.834 722.61 176.837C722.425 176.837 722.239 176.837 722.054 176.839L722.06 179.258C722.244 179.256 722.426 179.257 722.61 179.257C801.312 179.26 868.006 209.463 915.051 257.18C962.095 304.901 989.49 370.145 989.49 440.261C989.49 458.091 987.715 476.236 984.053 494.489L986.424 494.967Z" fill="url(#paint22_linear_74_4805)"/>
<path d="M997.831 143.629C977.874 228.063 967.758 314.881 967.758 401.894C967.758 406.071 967.79 410.248 967.839 414.425L970.259 414.397C970.21 410.23 970.178 406.061 970.178 401.894C970.178 315.068 980.262 228.436 1000.19 144.186L997.831 143.629Z" fill="url(#paint23_linear_74_4805)"/>
<path d="M864.683 -4.39618C864.667 -2.3279 864.667 -0.262669 864.667 1.804C864.667 111.123 873.266 220.873 890.222 328.126L892.61 327.749C875.67 220.621 867.087 110.995 867.087 1.804C867.087 -0.261056 867.087 -2.32474 867.103 -4.3898L864.683 -4.39618Z" fill="url(#paint24_linear_74_4805)"/>
<path d="M890.222 328.126C902.015 402.652 917.923 476.428 937.718 548.509L940.041 547.868C920.278 475.875 904.387 402.186 892.61 327.749L890.222 328.126Z" fill="url(#paint25_linear_74_4805)"/>
<path d="M109.781 355.574C226.163 411.411 340.701 472.867 450.22 538.236L451.459 536.158C341.877 470.751 227.276 409.262 110.828 353.393L109.781 355.574Z" fill="url(#paint26_linear_74_4805)"/>
<path d="M558.779 604.444C556.362 616.471 555.194 628.247 555.194 639.674C555.184 692.15 579.845 737.286 620.94 765.833L622.321 763.847C581.846 735.707 557.622 691.384 557.612 639.674C557.614 628.411 558.764 616.797 561.152 604.921L558.779 604.444Z" fill="url(#paint27_linear_74_4805)"/>
<path d="M664.493 674.544C662.617 683.872 661.71 693.009 661.71 701.875C661.71 717.128 664.393 731.588 669.43 744.87L671.694 744.012C666.762 731.007 664.132 716.846 664.13 701.875C664.13 693.173 665.021 684.198 666.865 675.022L664.493 674.544Z" fill="url(#paint28_linear_74_4805)"/>
<path d="M109.781 355.574C226.163 411.411 340.701 472.867 450.22 538.236L451.459 536.158C341.877 470.751 227.276 409.262 110.828 353.393L109.781 355.574Z" fill="url(#paint29_linear_74_4805)"/>
<path d="M406.223 -2.92154C476.762 108.264 549.688 219.965 622.981 329.091L624.989 327.74C551.709 218.633 478.795 106.949 408.267 -4.21693L406.223 -2.92154Z" fill="url(#paint30_linear_74_4805)"/>
<path d="M213.569 146.227C313.895 234.389 413.859 325.192 510.69 416.116L512.347 414.351C415.496 323.409 315.512 232.588 215.168 144.408L213.569 146.227Z" fill="url(#paint31_linear_74_4805)"/>
<path d="M462.925 657.898C355.758 618.004 243.935 585.826 130.552 562.243L130.539 562.241L130.528 562.238C-23.2995 533.374 -57.039 526.106 -213.793 517.41L-213.928 519.826C-57.2148 528.526 -23.8012 535.747 130.083 564.617L130.305 563.428L130.058 564.612C243.324 588.17 355.03 620.316 462.081 660.166L462.925 657.898Z" fill="url(#paint32_linear_74_4805)"/>
<path d="M725.708 715.364C626.3 642.131 562.071 602.187 451.459 536.158L450.839 537.197L452.025 537.436C465.361 471.083 506.975 410.875 563.512 367.235C620.045 323.594 691.475 296.54 764.334 296.413L764.331 295.203L763.2 295.631C807.523 412.836 837.498 486.909 890.883 595.67L893.061 594.604C839.709 485.912 809.781 411.966 765.463 294.776L765.167 293.991L764.329 293.993C690.87 294.127 618.962 321.377 562.033 365.32C505.108 409.263 463.134 469.921 449.652 536.958L449.484 537.797L450.22 538.236C560.826 604.263 624.928 644.128 724.274 717.313L725.708 715.364Z" fill="url(#paint33_linear_74_4805)"/>
<path d="M810.346 410.196C751.61 410.304 694.132 432.089 648.625 467.216C603.121 502.343 569.561 550.836 558.779 604.444L561.152 604.921C571.788 551.996 604.988 503.955 650.103 469.131C695.215 434.306 752.215 412.718 810.346 412.616V410.196Z" fill="url(#paint34_linear_74_4805)"/>
<path d="M859.52 523.936C813.992 524.021 769.432 540.909 734.155 568.138C698.88 595.369 672.857 632.962 664.493 674.544L666.865 675.022C675.085 634.124 700.748 596.981 735.633 570.054C770.515 543.125 814.589 526.433 859.536 526.356L859.52 523.936Z" fill="url(#paint35_linear_74_4805)"/>
<path d="M510.69 416.116C608.463 507.924 692.434 589.529 782.895 680.63L784.613 678.923C694.133 587.804 610.136 506.176 512.347 414.351L510.69 416.116Z" fill="url(#paint36_linear_74_4805)"/>
<path d="M462.081 660.166C531.423 685.983 599.214 715.187 664.678 747.407L665.746 745.235C600.207 712.978 532.343 683.744 462.925 657.898L462.081 660.166Z" fill="url(#paint37_linear_74_4805)"/>
<path d="M765.463 294.776C721.584 178.736 682.437 59.0849 649.1 -60.8562L647.936 -60.5318L647.938 -59.3217C648.243 -59.3217 648.546 -59.3236 648.849 -59.3236C759.735 -59.322 853.874 -22.9898 920.311 37.2824C986.731 97.5595 1025.45 181.769 1025.45 277.713C1025.45 301.994 1022.97 327.028 1017.82 352.615L1020.21 353.091C1025.37 327.352 1027.87 302.158 1027.87 277.713C1027.87 181.114 988.845 96.1994 921.924 35.4899C855.019 -25.226 760.26 -61.745 648.849 -61.7418C648.544 -61.7418 648.239 -61.7419 647.933 -61.7419L646.343 -61.7385L646.77 -60.2076C680.125 59.8045 719.295 179.521 763.2 295.631L765.463 294.776Z" fill="url(#paint38_linear_74_4805)"/>
<path d="M975.486 507.362C950.415 449.208 889.415 410.183 810.766 410.196L810.346 410.196V412.616L810.766 412.616C888.625 412.629 948.608 451.15 973.26 508.32L975.486 507.362Z" fill="url(#paint39_linear_74_4805)"/>
<path d="M941.139 545.816C918.939 531.919 891.206 523.934 859.859 523.936H859.52L859.536 526.356H859.859C890.787 526.356 918.068 534.23 939.848 547.866L941.139 545.816Z" fill="url(#paint40_linear_74_4805)"/>
<path d="M765.463 294.776C721.584 178.736 682.437 59.0849 649.1 -60.8562L647.936 -60.5318L647.938 -59.3217C648.243 -59.3217 648.546 -59.3236 648.849 -59.3236C759.735 -59.322 853.874 -22.9898 920.311 37.2824C986.731 97.5595 1025.45 181.769 1025.45 277.713C1025.45 301.994 1022.97 327.028 1017.82 352.615L1020.21 353.091C1025.37 327.352 1027.87 302.158 1027.87 277.713C1027.87 181.114 988.845 96.1994 921.924 35.4899C855.019 -25.226 760.26 -61.745 648.849 -61.7418C648.544 -61.7418 648.239 -61.7419 647.933 -61.7419L646.343 -61.7385L646.77 -60.2076C680.125 59.8045 719.295 179.521 763.2 295.631L765.463 294.776Z" fill="url(#paint41_linear_74_4805)"/>
<path d="M549.899 -1422.79L548.713 -1423.03C529.406 -1327.01 517.097 -1222.61 512.133 -1112.71L513.341 -1112.64L513.339 -1113.85C-171.306 -1112.6 -827.911 -605.796 -953.475 18.484C-967.556 88.5201 -974.352 157.061 -974.352 223.559C-974.357 486.332 -868.213 717.205 -686.229 882.333C-504.248 1047.46 -246.455 1146.86 56.8055 1146.86C57.6363 1146.86 58.4687 1146.85 59.3012 1146.85C401.633 1146.24 736.935 1019.2 1002.36 814.31C1267.77 609.419 1463.36 326.66 1526.11 14.5119C1540.2 -55.5242 1546.99 -124.065 1546.99 -190.564C1546.99 -453.34 1440.85 -684.213 1258.87 -849.333C1076.88 -1014.47 819.09 -1113.87 515.83 -1113.87C515.001 -1113.87 514.17 -1113.85 513.339 -1113.85L513.341 -1112.64L514.549 -1112.6C519.509 -1222.38 531.807 -1326.67 551.086 -1422.55L549.899 -1422.79L549.902 -1421.58C550.943 -1421.58 551.983 -1421.58 553.022 -1421.58C932.233 -1421.58 1254.41 -1297.31 1481.78 -1090.99C1709.15 -884.681 1841.73 -596.322 1841.73 -267.959C1841.73 -184.86 1833.24 -99.1984 1815.64 -11.6561C1658.79 768.693 837.402 1402.8 -18.7514 1404.32C-19.792 1404.32 -20.8327 1404.32 -21.8717 1404.32C-401.085 1404.32 -723.259 1280.05 -950.626 1073.73C-1177.99 867.413 -1310.58 579.056 -1310.58 250.695C-1310.58 167.596 -1302.09 81.9345 -1284.49 -5.60776C-1127.64 -785.962 -306.249 -1420.08 549.902 -1421.58L549.899 -1422.79L549.898 -1424C-307.414 -1422.42 -1129.65 -787.769 -1286.86 -6.08545C-1304.49 81.6085 -1313 167.431 -1313 250.695C-1313.01 579.711 -1180.11 868.771 -952.252 1075.52C-724.397 1282.29 -401.613 1406.74 -21.8717 1406.74C-20.8311 1406.74 -19.7889 1406.74 -18.7466 1406.74C838.563 1405.16 1660.79 770.506 1818.01 -11.1788C1835.65 -98.8727 1844.15 -184.695 1844.15 -267.959C1844.15 -596.977 1711.26 -886.037 1483.39 -1092.78C1255.54 -1299.55 932.765 -1424 553.022 -1424C551.982 -1424 550.94 -1424 549.898 -1424H548.908L548.713 -1423.03C529.406 -1327.01 517.097 -1222.61 512.133 -1112.71L512.075 -1111.43H513.344C514.174 -1111.43 515.003 -1111.45 515.83 -1111.45C818.558 -1111.43 1075.74 -1012.23 1257.24 -847.543C1438.74 -682.853 1544.57 -452.685 1544.57 -190.564C1544.57 -124.231 1537.79 -55.8499 1523.74 14.0345C1398.55 636.977 742.78 1143.24 59.2963 1144.43C58.4654 1144.43 57.6363 1144.44 56.8055 1144.44C-245.929 1144.43 -503.109 1045.23 -684.603 880.54C-866.095 715.845 -971.927 485.677 -971.932 223.559C-971.932 157.225 -965.152 88.8442 -951.102 18.9614C-888.485 -292.502 -693.274 -574.813 -428.241 -779.396C-163.212 -983.982 171.61 -1110.82 513.343 -1111.43H514.498L514.549 -1112.6C519.509 -1222.38 531.807 -1326.67 551.086 -1422.55L551.377 -1424H549.898L549.899 -1422.79Z" fill="url(#paint42_linear_74_4805)"/>
<path d="M549.899 -1422.79L548.713 -1423.03C529.406 -1327.01 517.097 -1222.61 512.133 -1112.71L513.341 -1112.64L513.339 -1113.85C-171.306 -1112.6 -827.911 -605.796 -953.475 18.484L-952.289 18.723L-952.118 17.5242C-1066.84 1.20385 -1177.84 -7.0596 -1282.14 -7.0596C-1283.32 -7.0596 -1284.5 -7.05802 -1285.68 -7.05641L-1285.67 -5.84633L-1284.49 -5.60776C-1127.64 -785.962 -306.249 -1420.08 549.902 -1421.58L549.899 -1422.79L549.898 -1424C-307.414 -1422.42 -1129.65 -787.769 -1286.86 -6.08545L-1287.15 -4.63315L-1285.67 -4.63634C-1284.49 -4.63795 -1283.31 -4.63962 -1282.14 -4.63962C-1177.97 -4.63962 -1067.08 3.61413 -952.459 19.92L-951.328 20.0813L-951.102 18.9614C-888.485 -292.502 -693.274 -574.813 -428.241 -779.396C-163.212 -983.982 171.611 -1110.82 513.344 -1111.43H514.498L514.549 -1112.6C519.509 -1222.38 531.807 -1326.67 551.086 -1422.55L551.377 -1424H549.898L549.899 -1422.79Z" fill="url(#paint43_linear_74_4805)"/>
<path d="M532.948 -1325.36C-266.305 -1323.89 -1032.85 -732.224 -1179.42 -3.46361L-1177.05 -2.9878C-1030.84 -730.409 -265.14 -1321.54 532.952 -1322.94L532.948 -1325.36Z" fill="url(#paint44_linear_74_4805)"/>
<path d="M520.737 -1221.77C-220.843 -1220.4 -932.062 -671.442 -1068.06 4.73826L-1065.69 5.21576C-930.055 -669.629 -219.678 -1218.04 520.74 -1219.35L520.737 -1221.77Z" fill="url(#paint45_linear_74_4805)"/>
<path d="M-1285.67 -5.84633L-1285.67 -4.63634C-1284.49 -4.63795 -1283.31 -4.63962 -1282.14 -4.63962C-1177.97 -4.63962 -1067.08 3.61413 -952.459 19.92L-952.289 18.723L-953.475 18.484C-967.556 88.5201 -974.352 157.061 -974.352 223.559C-974.357 486.332 -868.213 717.205 -686.229 882.333C-504.248 1047.46 -246.455 1146.86 56.8055 1146.86C57.6363 1146.86 58.4687 1146.85 59.3012 1146.85L59.2995 1145.64L58.1847 1145.17C25.6439 1221.74 -0.629128 1309.26 -19.9358 1405.29L-18.7484 1405.53L-18.7514 1404.32C-19.792 1404.32 -20.8327 1404.32 -21.8717 1404.32C-401.085 1404.32 -723.259 1280.05 -950.626 1073.73C-1177.99 867.413 -1310.58 579.056 -1310.58 250.695C-1310.58 167.596 -1302.09 81.9345 -1284.49 -5.60776L-1285.67 -5.84633L-1286.86 -6.08545C-1304.49 81.6085 -1313 167.431 -1313 250.695C-1313.01 579.711 -1180.11 868.771 -952.252 1075.52C-724.397 1282.29 -401.613 1406.74 -21.8717 1406.74C-20.8311 1406.74 -19.7889 1406.74 -18.7466 1406.74L-17.7578 1406.72L-17.5626 1405.76C1.71507 1309.88 27.9462 1222.52 60.4128 1146.12L61.1291 1144.43L59.2963 1144.43C58.4654 1144.43 57.6363 1144.44 56.8055 1144.44C-245.929 1144.43 -503.109 1045.23 -684.603 880.54C-866.095 715.845 -971.927 485.677 -971.932 223.559C-971.932 157.225 -965.152 88.8442 -951.102 18.9614L-950.85 17.7048L-952.118 17.5242C-1066.84 1.20385 -1177.84 -7.0596 -1282.14 -7.0596C-1283.32 -7.0596 -1284.5 -7.05802 -1285.68 -7.05641L-1286.66 -7.055L-1286.86 -6.08545L-1285.67 -5.84633Z" fill="url(#paint46_linear_74_4805)"/>
<path d="M-1179.42 -3.46361C-1195.85 78.2917 -1203.79 158.303 -1203.79 235.929C-1203.79 542.673 -1079.89 812.167 -867.459 1004.92C-655.029 1197.69 -354.097 1313.72 -0.0724246 1313.72C0.897184 1313.72 1.86837 1313.72 2.83959 1313.72L2.83481 1311.3C1.8652 1311.3 0.895571 1311.3 -0.0724246 1311.3C-353.571 1311.3 -653.89 1195.44 -865.833 1003.13C-1077.77 810.808 -1201.36 542.018 -1201.37 235.929C-1201.37 158.467 -1193.45 78.6174 -1177.05 -2.9878L-1179.42 -3.46361Z" fill="url(#paint47_linear_74_4805)"/>
<path d="M-1068.06 4.73826C-1083.31 80.5968 -1090.67 154.837 -1090.67 226.864C-1090.68 511.481 -975.713 761.539 -778.603 940.391C-581.496 1119.25 -302.273 1226.9 26.2054 1226.9C27.1056 1226.9 28.0058 1226.9 28.9061 1226.9L28.9029 1224.48C28.0042 1224.48 27.1056 1224.48 26.207 1224.48C-301.745 1224.48 -580.357 1117.01 -776.976 938.599C-973.595 760.18 -1088.25 510.826 -1088.25 226.864C-1088.25 155.002 -1080.91 80.9227 -1065.69 5.21576L-1068.06 4.73995" fill="url(#paint48_linear_74_4805)"/>
<path d="M-18.7484 1405.53L-17.5626 1405.76C1.71507 1309.88 27.9462 1222.52 60.4128 1146.12L59.2995 1145.64L59.3012 1146.85C401.633 1146.24 736.935 1019.2 1002.36 814.31C1267.77 609.419 1463.36 326.66 1526.11 14.5119L1524.92 14.2732L1525.16 15.4622C1613.49 -1.38736 1711.63 -10.0187 1816.82 -10.2075V-11.4174L1815.64 -11.6561C1658.79 768.693 837.402 1402.8 -18.7514 1404.32L-18.7484 1405.53L-18.7466 1406.74C838.563 1405.16 1660.79 770.506 1818.01 -11.1788L1818.3 -12.6307L1816.82 -12.6274C1711.5 -12.4371 1613.22 -3.79765 1524.69 13.0842L1523.9 13.2374L1523.74 14.0345C1398.55 636.977 742.78 1143.24 59.2963 1144.43L58.4978 1144.44L58.1847 1145.17C25.6439 1221.74 -0.629128 1309.26 -19.9358 1405.29L-20.2277 1406.74H-18.7466L-18.7484 1405.53Z" fill="url(#paint49_linear_74_4805)"/>
<path d="M2.83959 1313.72C802.086 1312.23 1568.64 720.575 1715.2 -8.18277L1712.82 -8.65877C1566.62 718.76 800.924 1309.89 2.83481 1311.3L2.83959 1313.72Z" fill="url(#paint50_linear_74_4805)"/>
<path d="M28.9077 1226.9C399.706 1226.23 762.893 1088.63 1050.39 866.701C1337.89 644.77 1549.72 338.495 1617.7 0.39684L1615.33 -0.0806606C1479.7 674.764 769.319 1223.19 28.9029 1224.48L28.9077 1226.9Z" fill="url(#paint51_linear_74_4805)"/>
<path d="M1816.82 -11.4174V-12.6274C1711.5 -12.4371 1613.22 -3.79765 1524.69 13.0842L1524.92 14.2732L1526.11 14.5119C1540.2 -55.5242 1546.99 -124.065 1546.99 -190.564C1546.99 -453.34 1440.85 -684.213 1258.87 -849.333C1076.88 -1014.47 819.09 -1113.87 515.83 -1113.87C515.001 -1113.87 514.17 -1113.85 513.339 -1113.85L513.341 -1112.64L514.549 -1112.6C519.509 -1222.38 531.807 -1326.67 551.086 -1422.55L549.899 -1422.79L549.902 -1421.58C550.943 -1421.58 551.983 -1421.58 553.022 -1421.58C932.233 -1421.58 1254.41 -1297.31 1481.78 -1090.99C1709.15 -884.681 1841.73 -596.322 1841.73 -267.959C1841.73 -184.86 1833.24 -99.1984 1815.64 -11.6561L1816.82 -11.4174L1818.01 -11.1788C1835.65 -98.8727 1844.15 -184.695 1844.15 -267.959C1844.15 -596.977 1711.26 -886.037 1483.39 -1092.78C1255.54 -1299.55 932.765 -1424 553.022 -1424C551.982 -1424 550.94 -1424 549.898 -1424H548.908L548.713 -1423.03C529.406 -1327.01 517.097 -1222.61 512.133 -1112.71L512.075 -1111.43H513.344C514.174 -1111.43 515.003 -1111.45 515.83 -1111.45C818.558 -1111.43 1075.74 -1012.23 1257.24 -847.543C1438.74 -682.853 1544.57 -452.685 1544.57 -190.564C1544.57 -124.231 1537.79 -55.8499 1523.74 14.0345L1523.39 15.799L1525.16 15.4622C1613.49 -1.38736 1711.63 -10.0187 1816.82 -10.2075L1817.82 -10.2093L1818.01 -11.1788L1816.82 -11.4174Z" fill="url(#paint52_linear_74_4805)"/>
<path d="M1715.2 -8.18277C1731.64 -89.9397 1739.57 -169.951 1739.57 -247.578C1739.57 -554.321 1615.67 -823.811 1403.24 -1016.57C1190.82 -1209.33 889.883 -1325.36 535.858 -1325.36C534.889 -1325.36 533.919 -1325.36 532.948 -1325.36L532.952 -1322.94C533.922 -1322.94 534.89 -1322.94 535.858 -1322.94C889.351 -1322.94 1189.67 -1207.1 1401.61 -1014.78C1613.56 -822.456 1737.15 -553.667 1737.15 -247.578C1737.15 -170.115 1729.23 -90.264 1712.82 -8.65877L1715.21 -8.18277" fill="url(#paint53_linear_74_4805)"/>
<path d="M1617.7 0.39684C1632.95 -75.4617 1640.32 -149.7 1640.32 -221.727C1640.32 -506.344 1525.36 -756.406 1328.24 -935.259C1131.14 -1114.11 851.921 -1221.77 523.439 -1221.77C522.538 -1221.77 521.637 -1221.77 520.737 -1221.77L520.74 -1219.35C521.638 -1219.35 522.54 -1219.35 523.439 -1219.35C851.389 -1219.35 1129.99 -1111.87 1326.63 -933.468C1523.24 -755.035 1637.89 -505.689 1637.9 -221.727C1637.9 -149.865 1630.55 -75.7876 1615.33 -0.0806606L1617.7 0.39684Z" fill="url(#paint54_linear_74_4805)"/>
<path d="M513.341 -1112.64L512.133 -1112.71C510.434 -1075.09 509.585 -1036.67 509.587 -997.598C509.587 -925.386 512.483 -850.915 518.268 -775.024L519.475 -775.121L519.473 -776.331C257.548 -775.847 1.01826 -678.656 -202.054 -521.899C-405.124 -365.142 -554.76 -148.803 -602.785 90.0415L-601.598 90.2786L-601.291 89.109C-721.027 57.6814 -839.065 33.6091 -952.118 17.5242L-952.289 18.723L-951.102 18.9614C-888.485 -292.502 -693.274 -574.813 -428.241 -779.396C-163.212 -983.982 171.61 -1110.82 513.343 -1111.43L513.341 -1112.64L513.339 -1113.85C-171.306 -1112.6 -827.911 -605.796 -953.475 18.484L-953.728 19.7409L-952.459 19.92C-839.507 35.9903 -721.557 60.045 -601.906 91.45L-600.665 91.7758L-600.412 90.5174C-552.532 -147.642 -403.257 -363.53 -200.577 -519.984C2.10075 -676.44 258.153 -773.443 519.476 -773.911H520.78L520.682 -775.201C514.899 -851.044 512.005 -925.45 512.005 -997.598C512.005 -1036.64 512.854 -1075.02 514.549 -1112.6L514.608 -1113.85L513.339 -1113.85L513.341 -1112.64Z" fill="url(#paint55_linear_74_4805)"/>
<path d="M-669.284 -550.485C-579.108 -488.577 -483.572 -419.417 -385.335 -344.912L-383.871 -346.839C-482.136 -421.365 -577.703 -490.548 -667.914 -552.48L-669.284 -550.485Z" fill="url(#paint56_linear_74_4805)"/>
<path d="M-952.289 18.723L-952.459 19.92C-839.507 35.9903 -721.557 60.045 -601.906 91.45L-601.598 90.2786L-602.785 90.0415C-613.559 143.63 -618.76 196.077 -618.76 246.961C-618.765 448.037 -537.537 624.717 -398.278 751.074C-259.021 877.438 -61.7611 953.485 170.267 953.484C170.903 953.484 171.539 953.484 172.174 953.482L172.173 952.272L171.23 951.514C127.914 1005.38 89.893 1070.56 58.1847 1145.17L59.2995 1145.64L59.2963 1144.43C58.4654 1144.44 57.6347 1144.44 56.8055 1144.44C-245.929 1144.43 -503.109 1045.23 -684.603 880.54C-866.095 715.847 -971.927 485.677 -971.932 223.559C-971.932 157.225 -965.152 88.8442 -951.102 18.9614L-952.289 18.723L-953.475 18.484C-967.556 88.5185 -974.352 157.061 -974.352 223.559C-974.357 486.332 -868.213 717.205 -686.229 882.333C-504.248 1047.46 -246.455 1146.86 56.8055 1146.86C57.6363 1146.86 58.4687 1146.86 59.3012 1146.85L60.0998 1146.85L60.4128 1146.12C92.0469 1071.68 129.965 1006.69 173.116 953.03L174.702 951.059L172.171 951.062C171.537 951.064 170.901 951.064 170.267 951.064C-61.2351 951.062 -257.882 875.201 -396.652 749.281C-535.419 623.357 -616.335 447.382 -616.34 246.961C-616.34 196.242 -611.157 143.956 -600.412 90.5174L-600.188 89.3993L-601.291 89.109C-721.027 57.6814 -839.065 33.6091 -952.118 17.5242L-953.25 17.3643L-953.475 18.484L-952.289 18.723Z" fill="url(#paint57_linear_74_4805)"/>
<path d="M-897.444 589.486C-788.893 559.787 -675.278 538.804 -559.772 527.173L-560.014 524.766C-675.651 536.41 -789.397 557.417 -898.083 587.152L-897.444 589.486Z" fill="url(#paint58_linear_74_4805)"/>
<path d="M-534.109 993.558C-454.735 931.387 -369.839 878.457 -281.778 836.303L-282.824 834.12C-371.049 876.353 -456.093 929.377 -535.601 991.653L-534.109 993.558Z" fill="url(#paint59_linear_74_4805)"/>
<path d="M59.2995 1145.64L60.4128 1146.12C92.0469 1071.68 129.965 1006.69 173.116 953.03L172.173 952.272L172.176 953.482C434.099 953.009 690.629 855.813 893.707 699.056C1096.78 542.299 1246.41 325.96 1294.42 87.1149L1293.25 86.8761L1293.76 87.9715C1361.2 56.2696 1439.08 31.8794 1525.16 15.4622L1524.92 14.2732L1523.74 14.0345C1398.55 636.977 742.78 1143.24 59.2963 1144.43L59.2995 1145.64L59.3012 1146.85C401.633 1146.24 736.935 1019.2 1002.36 814.31C1267.77 609.419 1463.36 326.66 1526.11 14.5119L1526.47 12.7471L1524.69 13.0842C1438.45 29.5353 1360.39 53.9771 1292.73 85.7806L1292.18 86.0404L1292.05 86.6373C1244.19 324.798 1094.9 540.687 892.222 697.141C689.547 853.596 433.494 950.594 172.171 951.062L171.593 951.064L171.23 951.514C127.914 1005.38 89.893 1070.56 58.1847 1145.17L57.4685 1146.86L59.3012 1146.85L59.2995 1145.64Z" fill="url(#paint60_linear_74_4805)"/>
<path d="M716.589 989.969C695.521 927.974 681.603 875.229 675.261 833.312L672.868 833.675C679.246 875.808 693.201 928.662 714.298 990.748L716.589 989.969Z" fill="url(#paint61_linear_74_4805)"/>
<path d="M1241.75 583.38C1178.35 553.95 1122.75 533.23 1076.54 521.856L1075.96 524.207C1121.96 535.524 1177.43 556.189 1240.73 585.576L1241.75 583.38Z" fill="url(#paint62_linear_74_4805)"/>
<path d="M1524.92 14.2732L1524.69 13.0842C1438.45 29.5353 1360.39 53.9771 1292.73 85.7806L1293.25 86.8761L1294.42 87.1149C1305.2 33.5267 1310.41 -18.9213 1310.41 -69.8055C1310.41 -270.881 1229.18 -447.561 1089.92 -573.918C950.673 -700.282 753.407 -776.331 521.38 -776.331C520.745 -776.331 520.109 -776.331 519.472 -776.331L519.475 -775.121L520.682 -775.201C514.899 -851.044 512.007 -925.467 512.007 -997.599C512.007 -1036.64 512.854 -1075.02 514.549 -1112.6L513.341 -1112.64L513.343 -1111.43C514.174 -1111.43 515.003 -1111.43 515.832 -1111.43C818.558 -1111.43 1075.74 -1012.23 1257.24 -847.543C1438.74 -682.853 1544.57 -452.685 1544.57 -190.564C1544.57 -124.231 1537.79 -55.8499 1523.74 14.0345L1524.92 14.2732L1526.11 14.5119C1540.2 -55.5242 1546.99 -124.065 1546.99 -190.564C1546.99 -453.34 1440.85 -684.213 1258.87 -849.333C1076.88 -1014.47 819.09 -1113.87 515.832 -1113.85C515.001 -1113.85 514.17 -1113.85 513.339 -1113.85L512.184 -1113.85L512.133 -1112.71C510.434 -1075.1 509.587 -1036.69 509.587 -997.598C509.587 -925.402 512.483 -850.915 518.268 -775.024L518.354 -773.911L519.476 -773.911C520.112 -773.911 520.746 -773.911 521.38 -773.911C752.881 -773.911 949.528 -698.046 1088.31 -572.126C1227.07 -446.201 1307.98 -270.226 1307.99 -69.8055C1307.99 -19.0858 1302.8 33.2008 1292.05 86.6373L1291.59 88.9925L1293.76 87.9715C1361.2 56.2696 1439.08 31.8794 1525.16 15.4622L1525.95 15.3087L1526.11 14.5119L1524.92 14.2732Z" fill="url(#paint63_linear_74_4805)"/>
<path d="M549.899 -1422.79L548.713 -1423.03C529.406 -1327.01 517.097 -1222.61 512.133 -1112.71L513.341 -1112.64L513.339 -1113.85C-171.306 -1112.6 -827.911 -605.796 -953.475 18.484C-967.556 88.5201 -974.352 157.061 -974.352 223.559C-974.357 486.332 -868.213 717.205 -686.229 882.333C-504.248 1047.46 -246.455 1146.86 56.8055 1146.86C57.6363 1146.86 58.4687 1146.85 59.3012 1146.85C401.633 1146.24 736.935 1019.2 1002.36 814.31C1267.77 609.419 1463.36 326.66 1526.11 14.5119C1540.2 -55.5242 1546.99 -124.065 1546.99 -190.564C1546.99 -453.34 1440.85 -684.213 1258.87 -849.333C1076.88 -1014.47 819.09 -1113.87 515.83 -1113.87C515.001 -1113.87 514.17 -1113.85 513.339 -1113.85L513.341 -1112.64L514.549 -1112.6C519.509 -1222.38 531.807 -1326.67 551.086 -1422.55L549.899 -1422.79L549.902 -1421.58C550.943 -1421.58 551.983 -1421.58 553.022 -1421.58C932.233 -1421.58 1254.41 -1297.31 1481.78 -1090.99C1709.15 -884.681 1841.73 -596.322 1841.73 -267.959C1841.73 -184.86 1833.24 -99.1984 1815.64 -11.6561C1658.79 768.693 837.402 1402.8 -18.7514 1404.32C-19.792 1404.32 -20.8327 1404.32 -21.8717 1404.32C-401.085 1404.32 -723.259 1280.05 -950.626 1073.73C-1177.99 867.413 -1310.58 579.056 -1310.58 250.695C-1310.58 167.596 -1302.09 81.9345 -1284.49 -5.60776C-1127.64 -785.962 -306.249 -1420.08 549.902 -1421.58L549.899 -1422.79L549.898 -1424C-307.414 -1422.42 -1129.65 -787.769 -1286.86 -6.08545C-1304.49 81.6085 -1313 167.431 -1313 250.695C-1313.01 579.711 -1180.11 868.771 -952.252 1075.52C-724.397 1282.29 -401.613 1406.74 -21.8717 1406.74C-20.8311 1406.74 -19.7889 1406.74 -18.7466 1406.74C838.563 1405.16 1660.79 770.506 1818.01 -11.1788C1835.65 -98.8727 1844.15 -184.695 1844.15 -267.959C1844.15 -596.977 1711.26 -886.037 1483.39 -1092.78C1255.54 -1299.55 932.765 -1424 553.022 -1424C551.982 -1424 550.94 -1424 549.898 -1424H548.908L548.713 -1423.03C529.406 -1327.01 517.097 -1222.61 512.133 -1112.71L512.075 -1111.43H513.344C514.174 -1111.43 515.003 -1111.45 515.83 -1111.45C818.558 -1111.43 1075.74 -1012.23 1257.24 -847.543C1438.74 -682.853 1544.57 -452.685 1544.57 -190.564C1544.57 -124.231 1537.79 -55.8499 1523.74 14.0345C1398.55 636.977 742.78 1143.24 59.2963 1144.43C58.4654 1144.43 57.6363 1144.44 56.8055 1144.44C-245.929 1144.43 -503.109 1045.23 -684.603 880.54C-866.095 715.845 -971.927 485.677 -971.932 223.559C-971.932 157.225 -965.152 88.8442 -951.102 18.9614C-888.485 -292.502 -693.274 -574.813 -428.241 -779.396C-163.212 -983.982 171.61 -1110.82 513.343 -1111.43H514.498L514.549 -1112.6C519.509 -1222.38 531.807 -1326.67 551.086 -1422.55L551.377 -1424H549.898L549.899 -1422.79Z" fill="url(#paint64_linear_74_4805)"/>
<path d="M513.341 -1112.64L512.133 -1112.71C510.434 -1075.09 509.585 -1036.67 509.587 -997.598C509.587 -925.386 512.483 -850.915 518.268 -775.024L519.475 -775.121L519.473 -776.331C257.548 -775.847 1.01826 -678.656 -202.054 -521.899C-405.124 -365.142 -554.76 -148.803 -602.785 90.0415C-613.559 143.63 -618.76 196.077 -618.76 246.961C-618.765 448.037 -537.537 624.717 -398.278 751.074C-259.021 877.438 -61.7611 953.485 170.267 953.484C170.903 953.484 171.539 953.484 172.174 953.482C434.099 953.009 690.629 855.813 893.707 699.056C1096.78 542.299 1246.41 325.96 1294.42 87.1149C1305.2 33.5267 1310.41 -18.9213 1310.41 -69.8055C1310.41 -270.881 1229.18 -447.561 1089.92 -573.918C950.673 -700.282 753.407 -776.331 521.38 -776.331C520.745 -776.331 520.109 -776.331 519.472 -776.331L519.475 -775.121L520.682 -775.201C514.899 -851.044 512.007 -925.467 512.007 -997.599C512.007 -1036.64 512.854 -1075.02 514.549 -1112.6L513.341 -1112.64L513.344 -1111.43C514.175 -1111.43 515.003 -1111.43 515.832 -1111.43C818.558 -1111.43 1075.74 -1012.23 1257.24 -847.543C1438.74 -682.853 1544.57 -452.685 1544.57 -190.564C1544.57 -124.231 1537.79 -55.8499 1523.74 14.0345C1398.55 636.977 742.78 1143.24 59.2963 1144.43C58.4654 1144.44 57.6347 1144.44 56.8055 1144.44C-245.929 1144.43 -503.109 1045.23 -684.603 880.54C-866.095 715.847 -971.927 485.677 -971.932 223.559C-971.932 157.225 -965.152 88.8442 -951.102 18.9614C-888.485 -292.502 -693.274 -574.813 -428.241 -779.396C-163.212 -983.982 171.611 -1110.82 513.344 -1111.43L513.341 -1112.64L513.339 -1113.85C-171.306 -1112.6 -827.911 -605.796 -953.475 18.484C-967.556 88.5185 -974.352 157.061 -974.352 223.559C-974.357 486.332 -868.213 717.205 -686.229 882.333C-504.248 1047.46 -246.455 1146.86 56.8055 1146.86C57.6363 1146.86 58.4687 1146.86 59.3012 1146.85C401.633 1146.24 736.935 1019.2 1002.36 814.31C1267.77 609.419 1463.36 326.66 1526.11 14.5119C1540.2 -55.5242 1546.99 -124.065 1546.99 -190.564C1546.99 -453.34 1440.85 -684.213 1258.87 -849.333C1076.88 -1014.47 819.09 -1113.87 515.832 -1113.85C515.001 -1113.85 514.17 -1113.85 513.339 -1113.85L512.184 -1113.85L512.133 -1112.71C510.434 -1075.1 509.587 -1036.69 509.587 -997.598C509.587 -925.402 512.483 -850.915 518.268 -775.024L518.354 -773.911L519.476 -773.911C520.112 -773.911 520.746 -773.911 521.38 -773.911C752.881 -773.911 949.528 -698.046 1088.31 -572.126C1227.07 -446.201 1307.98 -270.226 1307.99 -69.8055C1307.99 -19.0858 1302.8 33.2008 1292.05 86.6373C1244.19 324.798 1094.9 540.687 892.222 697.141C689.547 853.596 433.494 950.594 172.171 951.062C171.537 951.064 170.901 951.064 170.267 951.064C-61.2351 951.062 -257.882 875.201 -396.652 749.281C-535.419 623.357 -616.335 447.382 -616.34 246.961C-616.34 196.242 -611.157 143.956 -600.412 90.5174C-552.532 -147.642 -403.257 -363.53 -200.577 -519.984C2.10075 -676.44 258.153 -773.443 519.476 -773.911H520.78L520.682 -775.201C514.899 -851.044 512.007 -925.451 512.007 -997.599C512.007 -1036.64 512.854 -1075.02 514.549 -1112.6L514.608 -1113.85L513.339 -1113.85L513.341 -1112.64Z" fill="url(#paint65_linear_74_4805)"/>
<path d="M549.899 -1422.79L548.713 -1423.03C529.406 -1327.01 517.097 -1222.61 512.133 -1112.71L513.341 -1112.64L513.339 -1113.85C-171.306 -1112.6 -827.911 -605.796 -953.475 18.484L-952.289 18.723L-952.118 17.5242C-1066.84 1.20385 -1177.84 -7.0596 -1282.14 -7.0596C-1283.32 -7.0596 -1284.5 -7.05802 -1285.68 -7.05641L-1285.67 -5.84633L-1284.49 -5.60776C-1127.64 -785.962 -306.249 -1420.08 549.902 -1421.58L549.899 -1422.79L549.898 -1424C-307.414 -1422.42 -1129.65 -787.769 -1286.86 -6.08545L-1287.15 -4.63315L-1285.67 -4.63634C-1284.49 -4.63795 -1283.31 -4.63962 -1282.14 -4.63962C-1177.97 -4.63962 -1067.08 3.61413 -952.459 19.92L-951.328 20.0813L-951.102 18.9614C-888.485 -292.502 -693.274 -574.813 -428.241 -779.396C-163.212 -983.982 171.611 -1110.82 513.344 -1111.43H514.498L514.549 -1112.6C519.509 -1222.38 531.807 -1326.67 551.086 -1422.55L551.377 -1424H549.898L549.899 -1422.79Z" fill="url(#paint66_linear_74_4805)"/>
<path d="M-1285.67 -5.84633L-1285.67 -4.63634C-1284.49 -4.63795 -1283.31 -4.63962 -1282.14 -4.63962C-1177.97 -4.63962 -1067.08 3.61413 -952.459 19.92L-952.289 18.723L-953.475 18.484C-967.556 88.5201 -974.352 157.061 -974.352 223.559C-974.357 486.332 -868.213 717.205 -686.229 882.333C-504.248 1047.46 -246.455 1146.86 56.8055 1146.86C57.6363 1146.86 58.4687 1146.85 59.3012 1146.85L59.2995 1145.64L58.1847 1145.17C25.6439 1221.74 -0.629128 1309.26 -19.9358 1405.29L-18.7484 1405.53L-18.7514 1404.32C-19.792 1404.32 -20.8327 1404.32 -21.8717 1404.32C-401.085 1404.32 -723.259 1280.05 -950.626 1073.73C-1177.99 867.413 -1310.58 579.056 -1310.58 250.695C-1310.58 167.596 -1302.09 81.9345 -1284.49 -5.60776L-1285.67 -5.84633L-1286.86 -6.08545C-1304.49 81.6085 -1313 167.431 -1313 250.695C-1313.01 579.711 -1180.11 868.771 -952.252 1075.52C-724.397 1282.29 -401.613 1406.74 -21.8717 1406.74C-20.8311 1406.74 -19.7889 1406.74 -18.7466 1406.74L-17.7578 1406.72L-17.5626 1405.76C1.71507 1309.88 27.9462 1222.52 60.4128 1146.12L61.1291 1144.43L59.2963 1144.43C58.4654 1144.43 57.6363 1144.44 56.8055 1144.44C-245.929 1144.43 -503.109 1045.23 -684.603 880.54C-866.095 715.845 -971.927 485.677 -971.932 223.559C-971.932 157.225 -965.152 88.8442 -951.102 18.9614L-950.85 17.7048L-952.118 17.5242C-1066.84 1.20385 -1177.84 -7.0596 -1282.14 -7.0596C-1283.32 -7.0596 -1284.5 -7.05802 -1285.68 -7.05641L-1286.66 -7.055L-1286.86 -6.08545L-1285.67 -5.84633Z" fill="url(#paint67_linear_74_4805)"/>
<path d="M1816.82 -11.4174V-12.6274C1711.5 -12.4371 1613.22 -3.79765 1524.69 13.0842L1524.92 14.2732L1526.11 14.5119C1540.2 -55.5242 1546.99 -124.065 1546.99 -190.564C1546.99 -453.34 1440.85 -684.213 1258.87 -849.333C1076.88 -1014.47 819.09 -1113.87 515.83 -1113.87C515.001 -1113.87 514.17 -1113.85 513.339 -1113.85L513.341 -1112.64L514.549 -1112.6C519.509 -1222.38 531.807 -1326.67 551.086 -1422.55L549.899 -1422.79L549.902 -1421.58C550.943 -1421.58 551.983 -1421.58 553.022 -1421.58C932.233 -1421.58 1254.41 -1297.31 1481.78 -1090.99C1709.15 -884.681 1841.73 -596.322 1841.73 -267.959C1841.73 -184.86 1833.24 -99.1984 1815.64 -11.6561L1816.82 -11.4174L1818.01 -11.1788C1835.65 -98.8727 1844.15 -184.695 1844.15 -267.959C1844.15 -596.977 1711.26 -886.037 1483.39 -1092.78C1255.54 -1299.55 932.765 -1424 553.022 -1424C551.982 -1424 550.94 -1424 549.898 -1424H548.908L548.713 -1423.03C529.406 -1327.01 517.097 -1222.61 512.133 -1112.71L512.075 -1111.43H513.344C514.174 -1111.43 515.003 -1111.45 515.83 -1111.45C818.558 -1111.43 1075.74 -1012.23 1257.24 -847.543C1438.74 -682.853 1544.57 -452.685 1544.57 -190.564C1544.57 -124.231 1537.79 -55.8499 1523.74 14.0345L1523.39 15.799L1525.16 15.4622C1613.49 -1.38736 1711.63 -10.0187 1816.82 -10.2075L1817.82 -10.2093L1818.01 -11.1788L1816.82 -11.4174Z" fill="url(#paint68_linear_74_4805)"/>
<path d="M513.341 -1112.64L512.133 -1112.71C510.434 -1075.09 509.585 -1036.67 509.587 -997.598C509.587 -925.386 512.483 -850.915 518.268 -775.024L519.475 -775.121L519.473 -776.331C257.548 -775.847 1.01826 -678.656 -202.054 -521.899C-405.124 -365.142 -554.76 -148.803 -602.785 90.0415L-601.598 90.2786L-601.291 89.109C-721.027 57.6814 -839.065 33.6091 -952.118 17.5242L-952.289 18.723L-951.102 18.9614C-888.485 -292.502 -693.274 -574.813 -428.241 -779.396C-163.212 -983.982 171.61 -1110.82 513.343 -1111.43L513.341 -1112.64L513.339 -1113.85C-171.306 -1112.6 -827.911 -605.796 -953.475 18.484L-953.728 19.7409L-952.459 19.92C-839.507 35.9903 -721.557 60.045 -601.906 91.45L-600.665 91.7758L-600.412 90.5174C-552.532 -147.642 -403.257 -363.53 -200.577 -519.984C2.10075 -676.44 258.153 -773.443 519.476 -773.911H520.78L520.682 -775.201C514.899 -851.044 512.005 -925.45 512.005 -997.598C512.005 -1036.64 512.854 -1075.02 514.549 -1112.6L514.608 -1113.85L513.339 -1113.85L513.341 -1112.64Z" fill="url(#paint69_linear_74_4805)"/>
<path d="M510.802 -1004.76C-119.197 -1003.6 -723.384 -537.262 -838.931 37.1999L-836.558 37.6758C-778.948 -248.878 -599.345 -508.617 -355.501 -696.847C-111.66 -885.085 196.395 -1001.78 510.805 -1002.34L510.802 -1004.76Z" fill="url(#paint70_linear_74_4805)"/>
<path d="M512.846 -892.022C224.696 -891.506 -57.5262 -784.575 -280.935 -612.114C-504.34 -439.657 -668.958 -201.655 -721.79 61.0981L-719.418 61.5756C-666.731 -200.493 -502.473 -438.045 -279.455 -610.197C-56.4421 -782.348 225.301 -889.086 512.851 -889.602L512.846 -892.022Z" fill="url(#paint71_linear_74_4805)"/>
<path d="M-669.284 -550.485C-579.108 -488.577 -483.572 -419.417 -385.335 -344.912L-383.871 -346.839C-482.136 -421.365 -577.703 -490.548 -667.914 -552.48L-669.284 -550.485Z" fill="url(#paint72_linear_74_4805)"/>
<path d="M-952.289 18.723L-952.459 19.92C-839.507 35.9903 -721.557 60.045 -601.906 91.45L-601.598 90.2786L-602.785 90.0415C-613.559 143.63 -618.76 196.077 -618.76 246.961C-618.765 448.037 -537.537 624.717 -398.278 751.074C-259.021 877.438 -61.7611 953.485 170.267 953.484C170.903 953.484 171.539 953.484 172.174 953.482L172.173 952.272L171.23 951.514C127.914 1005.38 89.893 1070.56 58.1847 1145.17L59.2995 1145.64L59.2963 1144.43C58.4654 1144.44 57.6347 1144.44 56.8055 1144.44C-245.929 1144.43 -503.109 1045.23 -684.603 880.54C-866.095 715.847 -971.927 485.677 -971.932 223.559C-971.932 157.225 -965.152 88.8442 -951.102 18.9614L-952.289 18.723L-953.475 18.484C-967.556 88.5185 -974.352 157.061 -974.352 223.559C-974.357 486.332 -868.213 717.205 -686.229 882.333C-504.248 1047.46 -246.455 1146.86 56.8055 1146.86C57.6363 1146.86 58.4687 1146.86 59.3012 1146.85L60.0998 1146.85L60.4128 1146.12C92.0469 1071.68 129.965 1006.69 173.116 953.03L174.702 951.059L172.171 951.062C171.537 951.064 170.901 951.064 170.267 951.064C-61.2351 951.062 -257.882 875.201 -396.652 749.281C-535.419 623.357 -616.335 447.382 -616.34 246.961C-616.34 196.242 -611.157 143.956 -600.412 90.5174L-600.188 89.3993L-601.291 89.109C-721.027 57.6814 -839.065 33.6091 -952.118 17.5242L-953.25 17.3643L-953.475 18.484L-952.289 18.723Z" fill="url(#paint73_linear_74_4805)"/>
<path d="M-838.931 37.1999C-851.888 101.646 -858.142 164.717 -858.142 225.911C-858.147 467.719 -760.469 680.177 -593.003 832.129C-425.54 984.086 -188.318 1075.55 90.7369 1075.54C91.5016 1075.54 92.268 1075.54 93.0343 1075.54L93.031 1073.12C92.2647 1073.12 91.5016 1073.12 90.7369 1073.13C-187.792 1073.12 -424.403 981.851 -591.379 830.337C-758.351 678.817 -855.717 467.064 -855.722 225.911C-855.722 164.884 -849.485 101.972 -836.558 37.6758L-838.931 37.1999Z" fill="url(#paint74_linear_74_4805)"/>
<path d="M-721.79 61.0981C-733.643 120.051 -739.364 177.747 -739.364 233.724C-739.369 454.922 -650.015 649.278 -496.82 788.28C-343.628 927.288 -126.625 1010.95 128.635 1010.95C129.334 1010.95 130.034 1010.95 130.734 1010.95L130.731 1008.53C130.033 1008.53 129.334 1008.53 128.635 1008.53C-126.099 1008.53 -342.489 925.052 -495.194 786.488C-647.897 647.92 -736.939 454.267 -736.944 233.724C-736.944 177.913 -731.24 120.376 -719.418 61.5756L-721.79 61.0981Z" fill="url(#paint75_linear_74_4805)"/>
<path d="M-897.444 589.486C-788.893 559.787 -675.278 538.804 -559.772 527.173L-560.014 524.766C-675.651 536.41 -789.397 557.417 -898.083 587.152L-897.444 589.486Z" fill="url(#paint76_linear_74_4805)"/>
<path d="M-534.109 993.558C-454.735 931.387 -369.839 878.457 -281.778 836.303L-282.824 834.12C-371.049 876.353 -456.093 929.377 -535.601 991.653L-534.109 993.558Z" fill="url(#paint77_linear_74_4805)"/>
<path d="M59.2995 1145.64L60.4128 1146.12C92.0469 1071.68 129.965 1006.69 173.116 953.03L172.173 952.272L172.176 953.482C434.099 953.009 690.629 855.813 893.707 699.056C1096.78 542.299 1246.41 325.96 1294.42 87.1149L1293.25 86.8761L1293.76 87.9715C1361.2 56.2696 1439.08 31.8794 1525.16 15.4622L1524.92 14.2732L1523.74 14.0345C1398.55 636.977 742.78 1143.24 59.2963 1144.43L59.2995 1145.64L59.3012 1146.85C401.633 1146.24 736.935 1019.2 1002.36 814.31C1267.77 609.419 1463.36 326.66 1526.11 14.5119L1526.47 12.7471L1524.69 13.0842C1438.45 29.5353 1360.39 53.9771 1292.73 85.7806L1292.18 86.0404L1292.05 86.6373C1244.19 324.798 1094.9 540.687 892.222 697.141C689.547 853.596 433.494 950.594 172.171 951.062L171.593 951.064L171.23 951.514C127.914 1005.38 89.893 1070.56 58.1847 1145.17L57.4685 1146.86L59.3012 1146.85L59.2995 1145.64Z" fill="url(#paint78_linear_74_4805)"/>
<path d="M93.0343 1075.54C408.043 1074.98 716.576 958.078 960.821 769.545C1205.05 581.012 1385.01 320.821 1442.77 33.583L1440.4 33.107C1382.79 319.661 1203.17 579.4 959.337 767.63C715.494 955.861 407.439 1072.56 93.0293 1073.12L93.0343 1075.54Z" fill="url(#paint79_linear_74_4805)"/>
<path d="M130.734 1010.95C418.884 1010.43 701.106 903.498 924.521 731.043C1147.92 558.587 1312.54 320.584 1365.38 57.8313L1362.99 57.3554C1310.32 319.424 1146.05 556.975 923.037 729.128C700.024 901.281 418.281 1008.01 130.73 1008.53L130.734 1010.95Z" fill="url(#paint80_linear_74_4805)"/>
<path d="M716.589 989.969C695.521 927.974 681.603 875.229 675.261 833.312L672.868 833.675C679.246 875.808 693.201 928.662 714.298 990.748L716.589 989.969Z" fill="url(#paint81_linear_74_4805)"/>
<path d="M1241.75 583.38C1178.35 553.95 1122.75 533.23 1076.54 521.856L1075.96 524.207C1121.96 535.524 1177.43 556.189 1240.73 585.576L1241.75 583.38Z" fill="url(#paint82_linear_74_4805)"/>
<path d="M1524.92 14.2732L1524.69 13.0842C1438.45 29.5353 1360.39 53.9771 1292.73 85.7806L1293.25 86.8761L1294.42 87.1149C1305.2 33.5267 1310.41 -18.9213 1310.41 -69.8055C1310.41 -270.881 1229.18 -447.561 1089.92 -573.918C950.673 -700.282 753.407 -776.331 521.38 -776.331C520.745 -776.331 520.109 -776.331 519.472 -776.331L519.475 -775.121L520.682 -775.201C514.899 -851.044 512.007 -925.467 512.007 -997.599C512.007 -1036.64 512.854 -1075.02 514.549 -1112.6L513.341 -1112.64L513.343 -1111.43C514.174 -1111.43 515.003 -1111.43 515.832 -1111.43C818.558 -1111.43 1075.74 -1012.23 1257.24 -847.543C1438.74 -682.853 1544.57 -452.685 1544.57 -190.564C1544.57 -124.231 1537.79 -55.8499 1523.74 14.0345L1524.92 14.2732L1526.11 14.5119C1540.2 -55.5242 1546.99 -124.065 1546.99 -190.564C1546.99 -453.34 1440.85 -684.213 1258.87 -849.333C1076.88 -1014.47 819.09 -1113.87 515.832 -1113.85C515.001 -1113.85 514.17 -1113.85 513.339 -1113.85L512.184 -1113.85L512.133 -1112.71C510.434 -1075.1 509.587 -1036.69 509.587 -997.598C509.587 -925.402 512.483 -850.915 518.268 -775.024L518.354 -773.911L519.476 -773.911C520.112 -773.911 520.746 -773.911 521.38 -773.911C752.881 -773.911 949.528 -698.046 1088.31 -572.126C1227.07 -446.201 1307.98 -270.226 1307.99 -69.8055C1307.99 -19.0858 1302.8 33.2008 1292.05 86.6373L1291.59 88.9925L1293.76 87.9715C1361.2 56.2696 1439.08 31.8794 1525.16 15.4622L1525.95 15.3087L1526.11 14.5119L1524.92 14.2732Z" fill="url(#paint83_linear_74_4805)"/>
<path d="M1442.77 33.583C1455.72 -30.8629 1461.97 -93.9362 1461.97 -155.128C1461.98 -396.936 1364.3 -609.395 1196.83 -761.343C1029.37 -913.302 792.148 -1004.76 513.094 -1004.76C512.331 -1004.76 511.564 -1004.76 510.8 -1004.76L510.805 -1002.34C511.566 -1002.34 512.332 -1002.34 513.094 -1002.34C791.631 -1002.34 1028.24 -911.076 1195.2 -759.552C1362.18 -608.035 1459.55 -396.281 1459.55 -155.128C1459.55 -94.1008 1453.32 -31.1891 1440.4 33.1051L1442.77 33.583Z" fill="url(#paint84_linear_74_4805)"/>
<path d="M1365.38 57.8313C1377.22 -1.12118 1382.95 -58.8173 1382.95 -114.795C1382.95 -335.993 1293.6 -530.349 1140.4 -669.351C987.215 -808.355 770.205 -892.022 514.945 -892.022C514.246 -892.022 513.546 -892.022 512.846 -892.022L512.851 -889.602C513.549 -889.602 514.248 -889.602 514.945 -889.602C769.679 -889.602 986.07 -806.129 1138.77 -667.559C1291.47 -528.99 1380.51 -335.338 1380.53 -114.795C1380.53 -58.9818 1374.82 -1.44704 1362.99 57.3554L1365.38 57.8313Z" fill="url(#paint85_linear_74_4805)"/>
<path d="M519.475 -775.121L518.268 -775.024C527.019 -660.174 542.45 -540.949 564.133 -420.639L565.324 -420.854L565.321 -422.064C376.162 -421.72 190.913 -351.531 44.265 -238.33C-102.378 -125.128 -210.447 31.1034 -245.135 203.615L-243.949 203.853L-243.528 202.719C-363.371 158.183 -483.733 119.961 -601.291 89.109L-601.598 90.2786L-600.412 90.5174C-552.532 -147.642 -403.257 -363.53 -200.577 -519.984C2.10075 -676.44 258.153 -773.443 519.476 -773.911L519.475 -775.121L519.473 -776.331C257.548 -775.847 1.01826 -678.656 -202.054 -521.899C-405.124 -365.142 -554.76 -148.803 -602.785 90.0415L-603.009 91.1591L-601.906 91.45C-484.428 122.279 -364.142 160.478 -244.37 204.988L-243.042 205.481L-242.763 204.092C-208.219 32.265 -100.512 -123.516 45.7444 -236.415C191.996 -349.314 376.767 -419.308 565.326 -419.644L566.771 -419.647L566.515 -421.068C544.846 -541.301 529.424 -660.447 520.682 -775.201L520.596 -776.331L519.473 -776.331L519.475 -775.121Z" fill="url(#paint86_linear_74_4805)"/>
<path d="M16.5271 -655.749C73.9744 -552.458 136.37 -444.376 201.984 -334.489L204.062 -335.73C138.459 -445.595 76.0765 -553.657 18.6405 -656.925L16.5271 -655.749Z" fill="url(#paint87_linear_74_4805)"/>
<path d="M-385.335 -344.912C-288.883 -271.763 -188.873 -192.752 -88.0729 -110.061L-86.5369 -111.931C-187.362 -194.642 -287.394 -273.672 -383.871 -346.839L-385.335 -344.912Z" fill="url(#paint88_linear_74_4805)"/>
<path d="M-601.598 90.2786L-601.906 91.45C-484.428 122.279 -364.142 160.478 -244.37 204.988L-243.949 203.853L-245.135 203.615C-252.918 242.32 -256.673 280.202 -256.673 316.957C-256.678 462.198 -198 589.837 -97.4043 681.111C3.18979 772.391 145.671 827.315 313.239 827.314C313.699 827.314 314.158 827.313 314.618 827.311L314.616 826.102L313.999 825.061C261.785 856.072 213.753 898.619 171.23 951.514L172.173 952.272L172.171 951.062C171.537 951.064 170.901 951.064 170.267 951.064C-61.2351 951.062 -257.882 875.201 -396.652 749.281C-535.419 623.357 -616.335 447.382 -616.34 246.961C-616.34 196.242 -611.157 143.956 -600.412 90.5174L-601.598 90.2786L-602.785 90.0415C-613.559 143.63 -618.76 196.077 -618.76 246.961C-618.765 448.037 -537.537 624.717 -398.278 751.074C-259.021 877.438 -61.7611 953.485 170.267 953.484C170.903 953.484 171.539 953.484 172.176 953.482H172.753L173.116 953.03C215.479 900.334 263.297 857.989 315.234 827.143L319.035 824.885L314.615 824.892C314.157 824.894 313.699 824.894 313.239 824.894C146.197 824.892 4.32716 770.155 -95.7781 679.32C-195.882 588.478 -254.249 461.543 -254.253 316.957C-254.253 280.367 -250.514 242.646 -242.763 204.092L-242.558 203.079L-243.528 202.719C-363.371 158.183 -483.733 119.961 -601.291 89.109L-602.532 88.783L-602.785 90.0415L-601.598 90.2786Z" fill="url(#paint89_linear_74_4805)"/>
<path d="M-559.772 527.173C-486.911 519.833 -412.831 516.153 -338.385 516.153C-296.957 516.153 -255.415 517.292 -213.909 519.575L-213.775 517.158C-255.326 514.874 -296.913 513.733 -338.385 513.733C-412.91 513.733 -487.071 517.418 -560.014 524.766L-559.772 527.173Z" fill="url(#paint90_linear_74_4805)"/>
<path d="M-281.778 836.303C-195.32 794.903 -104.958 763.443 -13.1904 742.78L-13.1613 742.773L-13.1323 742.766C63.6233 721.434 172.231 717.543 263.492 712.938L263.369 710.522C172.116 715.136 63.441 718.99 -13.7793 740.434L-13.4565 741.599L-13.7212 740.419C-105.671 761.123 -196.204 792.644 -282.824 834.12L-281.778 836.303Z" fill="url(#paint91_linear_74_4805)"/>
<path d="M172.173 952.272L173.116 953.03C215.479 900.334 263.297 857.989 315.234 827.143L314.616 826.102L314.62 827.312C503.779 826.97 689.029 756.779 835.675 643.58C982.327 530.378 1090.39 374.145 1125.07 201.635L1123.9 201.396L1124.73 202.264C1170.68 157.549 1227.54 119.093 1293.76 87.9715L1293.25 86.8761L1292.05 86.6373C1244.19 324.798 1094.9 540.687 892.222 697.141C689.547 853.596 433.494 950.594 172.171 951.062L172.173 952.272L172.176 953.482C434.099 953.009 690.629 855.811 893.707 699.056C1096.78 542.297 1246.41 325.96 1294.42 87.1149L1294.91 84.7577L1292.73 85.7806C1226.29 117.003 1169.21 155.602 1123.04 200.53L1122.78 200.791L1122.7 201.159C1088.16 372.985 980.455 528.766 834.191 641.663C687.945 754.562 503.174 824.556 314.615 824.892L314.284 824.893L313.999 825.061C261.785 856.072 213.753 898.619 171.23 951.514L169.645 953.487L172.176 953.482L172.173 952.272Z" fill="url(#paint92_linear_74_4805)"/>
<path d="M675.261 833.312C672.555 815.459 671.207 799.485 671.207 785.472C671.205 767.177 673.511 752.226 678.044 740.805L675.795 739.913C671.103 751.745 668.788 766.975 668.787 785.472C668.787 799.64 670.148 815.726 672.868 833.675L675.261 833.312Z" fill="url(#paint93_linear_74_4805)"/>
<path d="M1076.54 521.856C1048.07 514.848 1022.97 511.325 1001.44 511.325C988.667 511.325 977.148 512.567 966.952 515.071L967.532 517.421C977.503 514.974 988.828 513.745 1001.44 513.745C1022.69 513.743 1047.63 517.231 1075.96 524.207L1076.54 521.858" fill="url(#paint94_linear_74_4805)"/>
<path d="M1293.25 86.8761L1292.73 85.7806C1226.29 117.002 1169.21 155.602 1123.04 200.53L1123.9 201.396L1125.07 201.635C1132.87 162.93 1136.61 125.047 1136.61 88.2924C1136.63 -56.9504 1077.93 -184.589 977.342 -275.864C876.751 -367.144 734.267 -422.067 566.699 -422.065C566.239 -422.065 565.781 -422.064 565.321 -422.064L565.324 -420.854L566.515 -421.068C544.846 -541.301 529.424 -660.447 520.682 -775.201L519.475 -775.121L519.476 -773.911C520.112 -773.911 520.746 -773.911 521.38 -773.911C752.883 -773.911 949.528 -698.046 1088.31 -572.126C1227.07 -446.201 1307.98 -270.226 1307.99 -69.8055C1307.99 -19.0858 1302.8 33.2008 1292.05 86.6373L1293.25 86.8761L1294.42 87.1149C1305.2 33.5267 1310.41 -18.9213 1310.41 -69.8055C1310.41 -270.881 1229.18 -447.561 1089.92 -573.918C950.673 -700.282 753.407 -776.331 521.38 -776.331C520.745 -776.331 520.109 -776.331 519.473 -776.331L518.17 -776.331L518.268 -775.024C527.019 -660.174 542.45 -540.949 564.133 -420.639L564.312 -419.642L565.326 -419.644C565.784 -419.644 566.242 -419.645 566.699 -419.645C733.741 -419.644 875.605 -364.908 975.712 -274.072C1075.82 -183.229 1134.19 -56.2954 1134.19 88.2924C1134.19 124.883 1130.46 162.605 1122.7 201.159L1121.93 204.991L1124.73 202.264C1170.68 157.549 1227.54 119.093 1293.76 87.9715L1294.31 87.7115L1294.42 87.1149L1293.25 86.8761Z" fill="url(#paint95_linear_74_4805)"/>
<path d="M1250.62 -349.596C1188.28 -276.084 1135.16 -196.713 1092.71 -113.667L1094.86 -112.567C1137.22 -195.438 1190.24 -274.657 1252.46 -348.032L1250.62 -349.596Z" fill="url(#paint96_linear_74_4805)"/>
<path d="M972.808 -658.446C937.428 -554.934 910.324 -446.638 892.206 -336.546L894.594 -336.152C912.679 -446.113 939.767 -554.282 975.099 -657.664L972.808 -658.446Z" fill="url(#paint97_linear_74_4805)"/>
<path d="M986.78 494.155C986.844 492.03 986.893 489.977 986.893 487.979C986.893 471.883 984.698 459.525 980.794 444.032C958.627 355.835 875.863 293.904 765.015 293.927C764.838 293.927 764.658 293.927 764.479 293.929L764.483 295.138L765.615 294.709C721.738 178.673 682.584 59.0443 649.266 -60.8774L646.934 -60.2305C680.272 59.7622 719.448 179.458 763.352 295.566L763.647 296.35L764.486 296.349C764.662 296.347 764.838 296.347 765.015 296.347C874.976 296.371 956.562 357.606 978.455 444.621C982.327 460.041 984.456 472.106 984.472 487.979C984.472 489.949 984.424 491.977 984.36 494.078L986.78 494.155Z" fill="url(#paint98_linear_74_4805)"/>
<path d="M315.463 827.392L315.504 827.362C317.451 825.914 388.882 773.788 604.995 772.552L604.981 770.132C385.057 771.383 314.239 825.28 313.995 825.469L315.463 827.392Z" fill="url(#paint99_linear_74_4805)"/>
<path d="M179.152 894.235C193.065 894.86 206.977 895.17 220.877 895.17C445.199 895.166 666.487 814.617 844.516 682.309C1022.55 550 1157.34 365.915 1208.56 158.767L1206.22 158.187C1155.15 364.692 1020.71 548.349 843.08 680.367C665.437 812.388 444.616 892.751 220.877 892.75C207.012 892.75 193.138 892.442 179.26 891.817L179.152 894.235Z" fill="url(#paint100_linear_74_4805)"/>
<path d="M-465.883 83.4849C-414.818 -123.021 -280.384 -306.677 -102.743 -438.697C74.894 -570.717 295.713 -651.083 519.454 -651.08C533.317 -651.08 547.193 -650.772 561.073 -650.147L561.181 -652.564C547.266 -653.19 533.354 -653.5 519.454 -653.5C295.131 -653.497 73.8421 -572.947 -104.187 -440.639C-282.212 -308.329 -417.003 -124.245 -468.232 82.9041L-465.883 83.4849Z" fill="url(#paint101_linear_74_4805)"/>
<path d="M179.26 891.817C-19.5389 882.878 -186.229 810.69 -303.224 697.445C-420.216 584.198 -487.534 429.895 -487.539 256.569C-487.539 200.611 -480.519 142.668 -465.883 83.4849L-468.232 82.9041C-482.913 142.27 -489.959 200.407 -489.959 256.569C-489.962 430.524 -422.362 585.5 -304.907 699.185C-187.454 812.874 -20.1698 885.275 179.152 894.235L179.26 891.817Z" fill="url(#paint102_linear_74_4805)"/>
<path d="M561.073 -650.147C759.872 -641.208 926.57 -569.02 1043.55 -455.776C1160.55 -342.527 1227.86 -188.223 1227.87 -14.8988C1227.87 41.061 1220.86 99.0017 1206.22 158.187L1208.56 158.767C1223.24 99.4019 1230.29 41.2626 1230.29 -14.8988C1230.29 -188.852 1162.7 -343.828 1045.25 -457.515C927.78 -571.204 760.501 -643.605 561.181 -652.564L561.073 -650.147Z" fill="url(#paint103_linear_74_4805)"/>
<path d="M-65.0184 275.203C-36.0156 131.606 54.3193 1.42468 176.961 -92.9C299.598 -187.228 454.518 -245.679 612.583 -245.905L612.58 -248.325C453.916 -248.092 298.519 -189.446 175.485 -94.8182C52.4543 -0.190182 -38.2404 130.439 -67.3916 274.722L-65.0184 275.203Z" fill="url(#paint104_linear_74_4805)"/>
<path d="M393.313 793.678C393.003 793.678 392.693 793.678 392.385 793.678C252.897 793.674 136.062 748.387 54.0965 673.134C-27.8668 597.876 -74.9921 492.653 -74.997 372.583C-74.997 341.056 -71.7459 308.503 -65.0184 275.203L-67.3917 274.724C-74.1483 308.176 -77.4169 340.889 -77.4169 372.583C-77.4234 493.287 -29.9997 599.215 52.459 674.917C134.916 750.622 252.376 796.099 392.385 796.098C392.695 796.098 393.005 796.098 393.316 796.098L393.313 793.678Z" fill="url(#paint105_linear_74_4805)"/>
<path d="M612.583 -245.905C612.843 -245.905 613.103 -245.905 613.362 -245.905C752.986 -245.9 870.362 -191.936 952.883 -106.918C1035.41 -21.8975 1083.03 94.186 1083.03 218.443C1083.03 250.769 1079.8 283.648 1073.14 316.678L1075.51 317.157C1082.21 283.97 1085.45 250.93 1085.45 218.443C1085.45 93.5665 1037.58 -23.1268 954.626 -108.602C871.669 -194.081 753.615 -248.328 613.362 -248.325C613.101 -248.325 612.84 -248.325 612.58 -248.325L612.583 -245.905Z" fill="url(#paint106_linear_74_4805)"/>
<path d="M237.817 856.915C250.401 857.48 262.982 857.76 275.553 857.76C478.403 857.757 678.502 784.918 839.483 665.279C1000.46 545.638 1122.35 379.178 1168.68 191.855L1166.33 191.274C1120.17 377.954 998.637 543.986 838.047 663.336C677.45 782.69 477.819 855.342 275.553 855.34C263.019 855.34 250.474 855.061 237.927 854.498L237.817 856.915Z" fill="url(#paint107_linear_74_4805)"/>
<path d="M-345.271 123.787C-299.109 -62.892 -177.577 -228.924 -16.9817 -348.276C143.61 -467.629 343.242 -540.281 545.507 -540.278C558.041 -540.278 570.585 -540.001 583.13 -539.436L583.24 -541.853C570.658 -542.419 558.077 -542.698 545.507 -542.698C342.658 -542.697 142.558 -469.858 -18.4257 -350.219C-179.407 -230.576 -301.293 -64.1165 -347.622 123.207L-345.271 123.787Z" fill="url(#paint108_linear_74_4805)"/>
<path d="M237.927 854.498C58.2074 846.415 -92.4773 781.158 -198.236 678.789C-303.992 576.417 -364.844 436.937 -364.847 280.256C-364.847 229.67 -358.503 177.29 -345.271 123.787L-347.622 123.207C-360.898 176.892 -367.267 229.466 -367.267 280.256C-367.272 437.566 -306.138 577.719 -199.918 680.528C-93.7019 783.342 57.5782 848.812 237.817 856.915L237.927 854.498Z" fill="url(#paint109_linear_74_4805)"/>
<path d="M583.13 -539.436C762.85 -531.355 913.534 -466.096 1019.29 -363.728C1125.06 -261.354 1185.9 -121.874 1185.91 34.8074C1185.91 85.3933 1179.56 137.772 1166.33 191.274L1168.68 191.855C1181.96 138.17 1188.33 85.5949 1188.33 34.8074C1188.33 -122.503 1127.2 -262.657 1020.98 -365.467C914.761 -468.281 763.481 -533.751 583.24 -541.853L583.13 -539.436Z" fill="url(#paint110_linear_74_4805)"/>
<path d="M1030.82 417.961C1056.96 370.489 1077.08 320.188 1090 267.904L1087.66 267.323C1074.77 319.392 1054.73 369.495 1028.71 416.794L1030.82 417.961Z" fill="url(#paint111_linear_74_4805)"/>
<path d="M-149.203 212.189C-111.434 59.4459 -11.9884 -76.4171 119.427 -174.081C250.84 -271.749 414.201 -331.2 579.707 -331.197C589.963 -331.197 600.227 -330.969 610.492 -330.508L610.602 -332.925C600.299 -333.389 589.998 -333.617 579.707 -333.617C413.616 -333.615 249.788 -273.978 117.984 -176.024C-13.818 -78.0691 -113.617 58.2214 -151.552 211.608L-149.203 212.189Z" fill="url(#paint112_linear_74_4805)"/>
<path d="M-151.552 211.608C-162.423 255.567 -167.64 298.62 -167.64 340.209C-167.644 469.03 -117.579 583.809 -30.5933 667.999C56.3891 752.195 180.268 805.805 327.847 812.439L327.881 812.44L327.918 812.439C327.934 812.439 365.636 811.935 414.278 808.36C462.926 804.782 522.493 798.146 566.342 785.833L565.689 783.503C522.155 795.736 462.665 802.379 414.102 805.946C389.817 807.731 368.259 808.749 352.775 809.322C345.032 809.607 338.808 809.781 334.52 809.885C330.232 809.988 327.892 810.019 327.886 810.02L327.902 811.229L327.955 810.02C180.899 803.407 57.6137 750.011 -28.9106 666.262C-115.433 582.506 -165.216 468.4 -165.22 340.209C-165.22 298.822 -160.029 255.965 -149.203 212.189L-151.552 211.608Z" fill="url(#paint113_linear_74_4805)"/>
<path d="M610.492 -330.508C757.55 -323.893 880.832 -270.498 967.355 -186.747C1053.88 -102.993 1103.66 11.1125 1103.66 139.304C1103.66 180.691 1098.49 223.547 1087.66 267.323L1090 267.904C1100.87 223.946 1106.08 180.894 1106.08 139.304C1106.1 10.4833 1056.02 -104.295 969.049 -188.487C882.058 -272.683 758.181 -326.292 610.602 -332.925L610.492 -330.508Z" fill="url(#paint114_linear_74_4805)"/>
<path d="M32.8168 300.987C63.9346 175.139 145.872 63.189 254.162 -17.2901C362.448 -97.7692 497.061 -146.758 633.434 -146.755C641.884 -146.755 650.343 -146.567 658.803 -146.187L658.911 -148.603C650.416 -148.986 641.921 -149.175 633.434 -149.175C496.479 -149.173 361.396 -99.9989 252.719 -19.2326C144.044 61.537 61.7502 173.916 30.4662 300.406L32.8168 300.987Z" fill="url(#paint115_linear_74_4805)"/>
<path d="M30.4662 300.406C21.5026 336.656 17.1999 372.16 17.1999 406.46C17.1967 498.818 48.4016 582.433 103.692 648.325C158.982 714.219 238.345 762.386 334.617 783.939C367.09 791.209 399.311 794.579 430.774 794.579C442.338 794.579 453.801 794.124 465.137 793.24C487.441 791.5 516.085 788.91 542.355 785.459C555.491 783.734 568.031 781.793 578.899 779.635C589.769 777.471 598.955 775.1 605.444 772.463L604.533 770.221C598.307 772.754 589.214 775.117 578.427 777.26C546.046 783.699 498.361 788.221 464.948 790.826C453.675 791.706 442.276 792.159 430.774 792.159C399.484 792.159 367.441 788.808 335.146 781.578C239.347 760.128 160.474 712.232 105.546 646.769C50.6183 581.304 19.6215 498.271 19.6199 406.46C19.6199 372.364 23.8983 337.054 32.8168 300.987L30.4662 300.406Z" fill="url(#paint116_linear_74_4805)"/>
<path d="M658.803 -146.187C779.974 -140.737 881.542 -96.7428 952.819 -27.7473C1024.1 41.2514 1065.11 135.247 1065.12 240.857C1065.11 274.954 1060.83 310.262 1051.93 346.331L1051.91 346.389L1051.89 346.452C1051.89 346.452 1051.86 346.691 1051.78 347.183C1050.57 354.562 1039.07 416.835 984.634 492.1L986.586 493.518C1044.96 412.821 1054.26 346.927 1054.3 346.791L1053.09 346.622L1054.26 346.912C1063.24 310.66 1067.54 275.156 1067.53 240.857C1067.54 134.618 1026.24 39.9494 954.513 -29.4865C882.768 -98.9273 780.603 -143.134 658.911 -148.603L658.803 -146.187Z" fill="url(#paint117_linear_74_4805)"/>
<path d="M449.647 536.992C446.807 553.487 445.449 569.349 445.449 584.492C445.446 639.424 463.326 684.895 493.11 716.623C522.887 748.352 564.553 766.302 611.923 766.297C615.153 766.297 618.41 766.213 621.692 766.045L621.569 763.63C618.328 763.795 615.113 763.877 611.923 763.877C565.163 763.872 524.195 746.197 494.875 714.966C465.557 683.731 447.872 638.904 447.869 584.492C447.869 569.494 449.214 553.769 452.031 537.402L449.647 536.992Z" fill="url(#paint118_linear_74_4805)"/>
<circle opacity="0.2" cx="851.896" cy="17.969" r="6.15044" fill="#6AB8FF"/>
<circle opacity="0.7" cx="813.456" cy="280.9" r="6.15044" fill="#6AB8FF"/>
</g>
<path d="M900.336 390.162C900.336 390.162 888.37 315.347 882.654 267.153C876.971 219.24 871.122 144.144 871.122 144.144" stroke="url(#paint119_linear_74_4805)" stroke-width="1.53761"/>
<path d="M400.607 505.392C321.42 460.032 258.163 428.546 166.891 379.307" stroke="url(#paint120_linear_74_4805)" stroke-width="1.53761"/>
</g>
<defs>
<radialGradient id="paint0_radial_74_4805" cx="0" cy="0" r="1" gradientUnits="userSpaceOnUse" gradientTransform="translate(550.405 343.745) rotate(111.216) scale(485.137 536.281)">
<stop stop-color="#D9D9D9" stop-opacity="0.13"/>
<stop offset="0.433229" stop-color="#D9D9D9" stop-opacity="0.22"/>
<stop offset="1" stop-color="#D9D9D9" stop-opacity="0"/>
</radialGradient>
<linearGradient id="paint1_linear_74_4805" x1="505.225" y1="385.768" x2="-980.107" y2="1076.92" gradientUnits="userSpaceOnUse">
<stop stop-color="#69B7FF"/>
<stop offset="0.452143" stop-color="#223859"/>
<stop offset="1" stop-color="#070719"/>
</linearGradient>
<linearGradient id="paint2_linear_74_4805" x1="505.225" y1="385.768" x2="-980.107" y2="1076.92" gradientUnits="userSpaceOnUse">
<stop stop-color="#69B7FF"/>
<stop offset="0.452143" stop-color="#223859"/>
<stop offset="1" stop-color="#070719"/>
</linearGradient>
<linearGradient id="paint3_linear_74_4805" x1="505.225" y1="385.768" x2="-980.107" y2="1076.92" gradientUnits="userSpaceOnUse">
<stop stop-color="#69B7FF"/>
<stop offset="0.452143" stop-color="#223859"/>
<stop offset="1" stop-color="#070719"/>
</linearGradient>
<linearGradient id="paint4_linear_74_4805" x1="505.225" y1="385.768" x2="-980.107" y2="1076.92" gradientUnits="userSpaceOnUse">
<stop stop-color="#69B7FF"/>
<stop offset="0.452143" stop-color="#223859"/>
<stop offset="1" stop-color="#070719"/>
</linearGradient>
<linearGradient id="paint5_linear_74_4805" x1="505.225" y1="385.768" x2="-980.107" y2="1076.92" gradientUnits="userSpaceOnUse">
<stop stop-color="#69B7FF"/>
<stop offset="0.452143" stop-color="#223859"/>
<stop offset="1" stop-color="#070719"/>
</linearGradient>
<linearGradient id="paint6_linear_74_4805" x1="505.225" y1="385.768" x2="-980.107" y2="1076.92" gradientUnits="userSpaceOnUse">
<stop stop-color="#69B7FF"/>
<stop offset="0.452143" stop-color="#223859"/>
<stop offset="1" stop-color="#070719"/>
</linearGradient>
<linearGradient id="paint7_linear_74_4805" x1="505.225" y1="385.768" x2="-980.107" y2="1076.92" gradientUnits="userSpaceOnUse">
<stop stop-color="#69B7FF"/>
<stop offset="0.452143" stop-color="#223859"/>
<stop offset="1" stop-color="#070719"/>
</linearGradient>
<linearGradient id="paint8_linear_74_4805" x1="505.225" y1="385.768" x2="-980.107" y2="1076.92" gradientUnits="userSpaceOnUse">
<stop stop-color="#69B7FF"/>
<stop offset="0.452143" stop-color="#223859"/>
<stop offset="1" stop-color="#070719"/>
</linearGradient>
<linearGradient id="paint9_linear_74_4805" x1="505.225" y1="385.768" x2="-980.107" y2="1076.92" gradientUnits="userSpaceOnUse">
<stop stop-color="#69B7FF"/>
<stop offset="0.452143" stop-color="#223859"/>
<stop offset="1" stop-color="#070719"/>
</linearGradient>
<linearGradient id="paint10_linear_74_4805" x1="505.225" y1="385.768" x2="-980.107" y2="1076.92" gradientUnits="userSpaceOnUse">
<stop stop-color="#69B7FF"/>
<stop offset="0.452143" stop-color="#223859"/>
<stop offset="1" stop-color="#070719"/>
</linearGradient>
<linearGradient id="paint11_linear_74_4805" x1="505.225" y1="385.768" x2="-980.107" y2="1076.92" gradientUnits="userSpaceOnUse">
<stop stop-color="#69B7FF"/>
<stop offset="0.452143" stop-color="#223859"/>
<stop offset="1" stop-color="#070719"/>
</linearGradient>
<linearGradient id="paint12_linear_74_4805" x1="505.225" y1="385.768" x2="-980.107" y2="1076.92" gradientUnits="userSpaceOnUse">
<stop stop-color="#69B7FF"/>
<stop offset="0.452143" stop-color="#223859"/>
<stop offset="1" stop-color="#070719"/>
</linearGradient>
<linearGradient id="paint13_linear_74_4805" x1="505.225" y1="385.768" x2="-980.107" y2="1076.92" gradientUnits="userSpaceOnUse">
<stop stop-color="#69B7FF"/>
<stop offset="0.452143" stop-color="#223859"/>
<stop offset="1" stop-color="#070719"/>
</linearGradient>
<linearGradient id="paint14_linear_74_4805" x1="505.225" y1="385.768" x2="-980.107" y2="1076.92" gradientUnits="userSpaceOnUse">
<stop stop-color="#69B7FF"/>
<stop offset="0.452143" stop-color="#223859"/>
<stop offset="1" stop-color="#070719"/>
</linearGradient>
<linearGradient id="paint15_linear_74_4805" x1="505.225" y1="385.768" x2="-980.107" y2="1076.92" gradientUnits="userSpaceOnUse">
<stop stop-color="#69B7FF"/>
<stop offset="0.452143" stop-color="#223859"/>
<stop offset="1" stop-color="#070719"/>
</linearGradient>
<linearGradient id="paint16_linear_74_4805" x1="505.225" y1="385.768" x2="-980.107" y2="1076.92" gradientUnits="userSpaceOnUse">
<stop stop-color="#69B7FF"/>
<stop offset="0.452143" stop-color="#223859"/>
<stop offset="1" stop-color="#070719"/>
</linearGradient>
<linearGradient id="paint17_linear_74_4805" x1="505.225" y1="385.768" x2="-980.107" y2="1076.92" gradientUnits="userSpaceOnUse">
<stop stop-color="#69B7FF"/>
<stop offset="0.452143" stop-color="#223859"/>
<stop offset="1" stop-color="#070719"/>
</linearGradient>
<linearGradient id="paint18_linear_74_4805" x1="505.225" y1="385.768" x2="-980.107" y2="1076.92" gradientUnits="userSpaceOnUse">
<stop stop-color="#69B7FF"/>
<stop offset="0.452143" stop-color="#223859"/>
<stop offset="1" stop-color="#070719"/>
</linearGradient>
<linearGradient id="paint19_linear_74_4805" x1="505.225" y1="385.768" x2="-980.107" y2="1076.92" gradientUnits="userSpaceOnUse">
<stop stop-color="#69B7FF"/>
<stop offset="0.452143" stop-color="#223859"/>
<stop offset="1" stop-color="#070719"/>
</linearGradient>
<linearGradient id="paint20_linear_74_4805" x1="505.225" y1="385.768" x2="-980.107" y2="1076.92" gradientUnits="userSpaceOnUse">
<stop stop-color="#69B7FF"/>
<stop offset="0.452143" stop-color="#223859"/>
<stop offset="1" stop-color="#070719"/>
</linearGradient>
<linearGradient id="paint21_linear_74_4805" x1="505.225" y1="385.768" x2="-980.107" y2="1076.92" gradientUnits="userSpaceOnUse">
<stop stop-color="#69B7FF"/>
<stop offset="0.452143" stop-color="#223859"/>
<stop offset="1" stop-color="#070719"/>
</linearGradient>
<linearGradient id="paint22_linear_74_4805" x1="505.225" y1="385.768" x2="-980.107" y2="1076.92" gradientUnits="userSpaceOnUse">
<stop stop-color="#69B7FF"/>
<stop offset="0.452143" stop-color="#223859"/>
<stop offset="1" stop-color="#070719"/>
</linearGradient>
<linearGradient id="paint23_linear_74_4805" x1="505.225" y1="385.768" x2="-980.107" y2="1076.92" gradientUnits="userSpaceOnUse">
<stop stop-color="#69B7FF"/>
<stop offset="0.452143" stop-color="#223859"/>
<stop offset="1" stop-color="#070719"/>
</linearGradient>
<linearGradient id="paint24_linear_74_4805" x1="505.225" y1="385.768" x2="-980.107" y2="1076.92" gradientUnits="userSpaceOnUse">
<stop stop-color="#69B7FF"/>
<stop offset="0.452143" stop-color="#223859"/>
<stop offset="1" stop-color="#070719"/>
</linearGradient>
<linearGradient id="paint25_linear_74_4805" x1="505.225" y1="385.768" x2="-980.107" y2="1076.92" gradientUnits="userSpaceOnUse">
<stop stop-color="#69B7FF"/>
<stop offset="0.452143" stop-color="#223859"/>
<stop offset="1" stop-color="#070719"/>
</linearGradient>
<linearGradient id="paint26_linear_74_4805" x1="505.225" y1="385.768" x2="-980.107" y2="1076.92" gradientUnits="userSpaceOnUse">
<stop stop-color="#69B7FF"/>
<stop offset="0.452143" stop-color="#223859"/>
<stop offset="1" stop-color="#070719"/>
</linearGradient>
<linearGradient id="paint27_linear_74_4805" x1="505.225" y1="385.768" x2="-980.107" y2="1076.92" gradientUnits="userSpaceOnUse">
<stop stop-color="#69B7FF"/>
<stop offset="0.452143" stop-color="#223859"/>
<stop offset="1" stop-color="#070719"/>
</linearGradient>
<linearGradient id="paint28_linear_74_4805" x1="505.225" y1="385.768" x2="-980.107" y2="1076.92" gradientUnits="userSpaceOnUse">
<stop stop-color="#69B7FF"/>
<stop offset="0.452143" stop-color="#223859"/>
<stop offset="1" stop-color="#070719"/>
</linearGradient>
<linearGradient id="paint29_linear_74_4805" x1="505.225" y1="385.768" x2="-980.107" y2="1076.92" gradientUnits="userSpaceOnUse">
<stop stop-color="#69B7FF"/>
<stop offset="0.452143" stop-color="#223859"/>
<stop offset="1" stop-color="#070719"/>
</linearGradient>
<linearGradient id="paint30_linear_74_4805" x1="505.225" y1="385.768" x2="-980.107" y2="1076.92" gradientUnits="userSpaceOnUse">
<stop stop-color="#69B7FF"/>
<stop offset="0.452143" stop-color="#223859"/>
<stop offset="1" stop-color="#070719"/>
</linearGradient>
<linearGradient id="paint31_linear_74_4805" x1="505.225" y1="385.768" x2="-980.107" y2="1076.92" gradientUnits="userSpaceOnUse">
<stop stop-color="#69B7FF"/>
<stop offset="0.452143" stop-color="#223859"/>
<stop offset="1" stop-color="#070719"/>
</linearGradient>
<linearGradient id="paint32_linear_74_4805" x1="505.225" y1="385.768" x2="-980.107" y2="1076.92" gradientUnits="userSpaceOnUse">
<stop stop-color="#69B7FF"/>
<stop offset="0.452143" stop-color="#223859"/>
<stop offset="1" stop-color="#070719"/>
</linearGradient>
<linearGradient id="paint33_linear_74_4805" x1="505.225" y1="385.768" x2="-980.107" y2="1076.92" gradientUnits="userSpaceOnUse">
<stop stop-color="#69B7FF"/>
<stop offset="0.452143" stop-color="#223859"/>
<stop offset="1" stop-color="#070719"/>
</linearGradient>
<linearGradient id="paint34_linear_74_4805" x1="505.225" y1="385.768" x2="-980.107" y2="1076.92" gradientUnits="userSpaceOnUse">
<stop stop-color="#69B7FF"/>
<stop offset="0.452143" stop-color="#223859"/>
<stop offset="1" stop-color="#070719"/>
</linearGradient>
<linearGradient id="paint35_linear_74_4805" x1="505.225" y1="385.768" x2="-980.107" y2="1076.92" gradientUnits="userSpaceOnUse">
<stop stop-color="#69B7FF"/>
<stop offset="0.452143" stop-color="#223859"/>
<stop offset="1" stop-color="#070719"/>
</linearGradient>
<linearGradient id="paint36_linear_74_4805" x1="505.225" y1="385.768" x2="-980.107" y2="1076.92" gradientUnits="userSpaceOnUse">
<stop stop-color="#69B7FF"/>
<stop offset="0.452143" stop-color="#223859"/>
<stop offset="1" stop-color="#070719"/>
</linearGradient>
<linearGradient id="paint37_linear_74_4805" x1="505.225" y1="385.768" x2="-980.107" y2="1076.92" gradientUnits="userSpaceOnUse">
<stop stop-color="#69B7FF"/>
<stop offset="0.452143" stop-color="#223859"/>
<stop offset="1" stop-color="#070719"/>
</linearGradient>
<linearGradient id="paint38_linear_74_4805" x1="505.225" y1="385.768" x2="-980.107" y2="1076.92" gradientUnits="userSpaceOnUse">
<stop stop-color="#69B7FF"/>
<stop offset="0.452143" stop-color="#223859"/>
<stop offset="1" stop-color="#070719"/>
</linearGradient>
<linearGradient id="paint39_linear_74_4805" x1="505.225" y1="385.768" x2="-980.107" y2="1076.92" gradientUnits="userSpaceOnUse">
<stop stop-color="#69B7FF"/>
<stop offset="0.452143" stop-color="#223859"/>
<stop offset="1" stop-color="#070719"/>
</linearGradient>
<linearGradient id="paint40_linear_74_4805" x1="505.225" y1="385.768" x2="-980.107" y2="1076.92" gradientUnits="userSpaceOnUse">
<stop stop-color="#69B7FF"/>
<stop offset="0.452143" stop-color="#223859"/>
<stop offset="1" stop-color="#070719"/>
</linearGradient>
<linearGradient id="paint41_linear_74_4805" x1="505.225" y1="385.768" x2="-980.107" y2="1076.92" gradientUnits="userSpaceOnUse">
<stop stop-color="#69B7FF"/>
<stop offset="0.452143" stop-color="#223859"/>
<stop offset="1" stop-color="#070719"/>
</linearGradient>
<linearGradient id="paint42_linear_74_4805" x1="505.225" y1="385.768" x2="-980.107" y2="1076.92" gradientUnits="userSpaceOnUse">
<stop stop-color="#69B7FF"/>
<stop offset="0.452143" stop-color="#223859"/>
<stop offset="1" stop-color="#070719"/>
</linearGradient>
<linearGradient id="paint43_linear_74_4805" x1="505.225" y1="385.768" x2="-980.107" y2="1076.92" gradientUnits="userSpaceOnUse">
<stop stop-color="#69B7FF"/>
<stop offset="0.452143" stop-color="#223859"/>
<stop offset="1" stop-color="#070719"/>
</linearGradient>
<linearGradient id="paint44_linear_74_4805" x1="505.225" y1="385.768" x2="-980.107" y2="1076.92" gradientUnits="userSpaceOnUse">
<stop stop-color="#69B7FF"/>
<stop offset="0.452143" stop-color="#223859"/>
<stop offset="1" stop-color="#070719"/>
</linearGradient>
<linearGradient id="paint45_linear_74_4805" x1="505.225" y1="385.768" x2="-980.107" y2="1076.92" gradientUnits="userSpaceOnUse">
<stop stop-color="#69B7FF"/>
<stop offset="0.452143" stop-color="#223859"/>
<stop offset="1" stop-color="#070719"/>
</linearGradient>
<linearGradient id="paint46_linear_74_4805" x1="505.225" y1="385.768" x2="-980.107" y2="1076.92" gradientUnits="userSpaceOnUse">
<stop stop-color="#69B7FF"/>
<stop offset="0.452143" stop-color="#223859"/>
<stop offset="1" stop-color="#070719"/>
</linearGradient>
<linearGradient id="paint47_linear_74_4805" x1="505.225" y1="385.768" x2="-980.107" y2="1076.92" gradientUnits="userSpaceOnUse">
<stop stop-color="#69B7FF"/>
<stop offset="0.452143" stop-color="#223859"/>
<stop offset="1" stop-color="#070719"/>
</linearGradient>
<linearGradient id="paint48_linear_74_4805" x1="505.225" y1="385.768" x2="-980.107" y2="1076.92" gradientUnits="userSpaceOnUse">
<stop stop-color="#69B7FF"/>
<stop offset="0.452143" stop-color="#223859"/>
<stop offset="1" stop-color="#070719"/>
</linearGradient>
<linearGradient id="paint49_linear_74_4805" x1="505.225" y1="385.768" x2="-980.107" y2="1076.92" gradientUnits="userSpaceOnUse">
<stop stop-color="#69B7FF"/>
<stop offset="0.452143" stop-color="#223859"/>
<stop offset="1" stop-color="#070719"/>
</linearGradient>
<linearGradient id="paint50_linear_74_4805" x1="505.225" y1="385.768" x2="-980.107" y2="1076.92" gradientUnits="userSpaceOnUse">
<stop stop-color="#69B7FF"/>
<stop offset="0.452143" stop-color="#223859"/>
<stop offset="1" stop-color="#070719"/>
</linearGradient>
<linearGradient id="paint51_linear_74_4805" x1="505.225" y1="385.768" x2="-980.107" y2="1076.92" gradientUnits="userSpaceOnUse">
<stop stop-color="#69B7FF"/>
<stop offset="0.452143" stop-color="#223859"/>
<stop offset="1" stop-color="#070719"/>
</linearGradient>
<linearGradient id="paint52_linear_74_4805" x1="505.225" y1="385.768" x2="-980.107" y2="1076.92" gradientUnits="userSpaceOnUse">
<stop stop-color="#69B7FF"/>
<stop offset="0.452143" stop-color="#223859"/>
<stop offset="1" stop-color="#070719"/>
</linearGradient>
<linearGradient id="paint53_linear_74_4805" x1="505.225" y1="385.768" x2="-980.107" y2="1076.92" gradientUnits="userSpaceOnUse">
<stop stop-color="#69B7FF"/>
<stop offset="0.452143" stop-color="#223859"/>
<stop offset="1" stop-color="#070719"/>
</linearGradient>
<linearGradient id="paint54_linear_74_4805" x1="505.225" y1="385.768" x2="-980.107" y2="1076.92" gradientUnits="userSpaceOnUse">
<stop stop-color="#69B7FF"/>
<stop offset="0.452143" stop-color="#223859"/>
<stop offset="1" stop-color="#070719"/>
</linearGradient>
<linearGradient id="paint55_linear_74_4805" x1="505.225" y1="385.768" x2="-980.107" y2="1076.92" gradientUnits="userSpaceOnUse">
<stop stop-color="#69B7FF"/>
<stop offset="0.452143" stop-color="#223859"/>
<stop offset="1" stop-color="#070719"/>
</linearGradient>
<linearGradient id="paint56_linear_74_4805" x1="505.225" y1="385.768" x2="-980.107" y2="1076.92" gradientUnits="userSpaceOnUse">
<stop stop-color="#69B7FF"/>
<stop offset="0.452143" stop-color="#223859"/>
<stop offset="1" stop-color="#070719"/>
</linearGradient>
<linearGradient id="paint57_linear_74_4805" x1="505.225" y1="385.768" x2="-980.107" y2="1076.92" gradientUnits="userSpaceOnUse">
<stop stop-color="#69B7FF"/>
<stop offset="0.452143" stop-color="#223859"/>
<stop offset="1" stop-color="#070719"/>
</linearGradient>
<linearGradient id="paint58_linear_74_4805" x1="505.225" y1="385.768" x2="-980.107" y2="1076.92" gradientUnits="userSpaceOnUse">
<stop stop-color="#69B7FF"/>
<stop offset="0.452143" stop-color="#223859"/>
<stop offset="1" stop-color="#070719"/>
</linearGradient>
<linearGradient id="paint59_linear_74_4805" x1="505.225" y1="385.768" x2="-980.107" y2="1076.92" gradientUnits="userSpaceOnUse">
<stop stop-color="#69B7FF"/>
<stop offset="0.452143" stop-color="#223859"/>
<stop offset="1" stop-color="#070719"/>
</linearGradient>
<linearGradient id="paint60_linear_74_4805" x1="505.225" y1="385.768" x2="-980.107" y2="1076.92" gradientUnits="userSpaceOnUse">
<stop stop-color="#69B7FF"/>
<stop offset="0.452143" stop-color="#223859"/>
<stop offset="1" stop-color="#070719"/>
</linearGradient>
<linearGradient id="paint61_linear_74_4805" x1="505.225" y1="385.768" x2="-980.107" y2="1076.92" gradientUnits="userSpaceOnUse">
<stop stop-color="#69B7FF"/>
<stop offset="0.452143" stop-color="#223859"/>
<stop offset="1" stop-color="#070719"/>
</linearGradient>
<linearGradient id="paint62_linear_74_4805" x1="505.225" y1="385.768" x2="-980.107" y2="1076.92" gradientUnits="userSpaceOnUse">
<stop stop-color="#69B7FF"/>
<stop offset="0.452143" stop-color="#223859"/>
<stop offset="1" stop-color="#070719"/>
</linearGradient>
<linearGradient id="paint63_linear_74_4805" x1="505.225" y1="385.768" x2="-980.107" y2="1076.92" gradientUnits="userSpaceOnUse">
<stop stop-color="#69B7FF"/>
<stop offset="0.452143" stop-color="#223859"/>
<stop offset="1" stop-color="#070719"/>
</linearGradient>
<linearGradient id="paint64_linear_74_4805" x1="505.225" y1="385.768" x2="-980.107" y2="1076.92" gradientUnits="userSpaceOnUse">
<stop stop-color="#69B7FF"/>
<stop offset="0.452143" stop-color="#223859"/>
<stop offset="1" stop-color="#070719"/>
</linearGradient>
<linearGradient id="paint65_linear_74_4805" x1="505.225" y1="385.768" x2="-980.107" y2="1076.92" gradientUnits="userSpaceOnUse">
<stop stop-color="#69B7FF"/>
<stop offset="0.452143" stop-color="#223859"/>
<stop offset="1" stop-color="#070719"/>
</linearGradient>
<linearGradient id="paint66_linear_74_4805" x1="505.225" y1="385.768" x2="-980.107" y2="1076.92" gradientUnits="userSpaceOnUse">
<stop stop-color="#69B7FF"/>
<stop offset="0.452143" stop-color="#223859"/>
<stop offset="1" stop-color="#070719"/>
</linearGradient>
<linearGradient id="paint67_linear_74_4805" x1="505.225" y1="385.768" x2="-980.107" y2="1076.92" gradientUnits="userSpaceOnUse">
<stop stop-color="#69B7FF"/>
<stop offset="0.452143" stop-color="#223859"/>
<stop offset="1" stop-color="#070719"/>
</linearGradient>
<linearGradient id="paint68_linear_74_4805" x1="505.225" y1="385.768" x2="-980.107" y2="1076.92" gradientUnits="userSpaceOnUse">
<stop stop-color="#69B7FF"/>
<stop offset="0.452143" stop-color="#223859"/>
<stop offset="1" stop-color="#070719"/>
</linearGradient>
<linearGradient id="paint69_linear_74_4805" x1="505.225" y1="385.768" x2="-980.107" y2="1076.92" gradientUnits="userSpaceOnUse">
<stop stop-color="#69B7FF"/>
<stop offset="0.452143" stop-color="#223859"/>
<stop offset="1" stop-color="#070719"/>
</linearGradient>
<linearGradient id="paint70_linear_74_4805" x1="505.225" y1="385.768" x2="-980.107" y2="1076.92" gradientUnits="userSpaceOnUse">
<stop stop-color="#69B7FF"/>
<stop offset="0.452143" stop-color="#223859"/>
<stop offset="1" stop-color="#070719"/>
</linearGradient>
<linearGradient id="paint71_linear_74_4805" x1="505.225" y1="385.768" x2="-980.107" y2="1076.92" gradientUnits="userSpaceOnUse">
<stop stop-color="#69B7FF"/>
<stop offset="0.452143" stop-color="#223859"/>
<stop offset="1" stop-color="#070719"/>
</linearGradient>
<linearGradient id="paint72_linear_74_4805" x1="505.225" y1="385.768" x2="-980.107" y2="1076.92" gradientUnits="userSpaceOnUse">
<stop stop-color="#69B7FF"/>
<stop offset="0.452143" stop-color="#223859"/>
<stop offset="1" stop-color="#070719"/>
</linearGradient>
<linearGradient id="paint73_linear_74_4805" x1="505.225" y1="385.768" x2="-980.107" y2="1076.92" gradientUnits="userSpaceOnUse">
<stop stop-color="#69B7FF"/>
<stop offset="0.452143" stop-color="#223859"/>
<stop offset="1" stop-color="#070719"/>
</linearGradient>
<linearGradient id="paint74_linear_74_4805" x1="505.225" y1="385.768" x2="-980.107" y2="1076.92" gradientUnits="userSpaceOnUse">
<stop stop-color="#69B7FF"/>
<stop offset="0.452143" stop-color="#223859"/>
<stop offset="1" stop-color="#070719"/>
</linearGradient>
<linearGradient id="paint75_linear_74_4805" x1="505.225" y1="385.768" x2="-980.107" y2="1076.92" gradientUnits="userSpaceOnUse">
<stop stop-color="#69B7FF"/>
<stop offset="0.452143" stop-color="#223859"/>
<stop offset="1" stop-color="#070719"/>
</linearGradient>
<linearGradient id="paint76_linear_74_4805" x1="505.225" y1="385.768" x2="-980.107" y2="1076.92" gradientUnits="userSpaceOnUse">
<stop stop-color="#69B7FF"/>
<stop offset="0.452143" stop-color="#223859"/>
<stop offset="1" stop-color="#070719"/>
</linearGradient>
<linearGradient id="paint77_linear_74_4805" x1="505.225" y1="385.768" x2="-980.107" y2="1076.92" gradientUnits="userSpaceOnUse">
<stop stop-color="#69B7FF"/>
<stop offset="0.452143" stop-color="#223859"/>
<stop offset="1" stop-color="#070719"/>
</linearGradient>
<linearGradient id="paint78_linear_74_4805" x1="505.225" y1="385.768" x2="-980.107" y2="1076.92" gradientUnits="userSpaceOnUse">
<stop stop-color="#69B7FF"/>
<stop offset="0.452143" stop-color="#223859"/>
<stop offset="1" stop-color="#070719"/>
</linearGradient>
<linearGradient id="paint79_linear_74_4805" x1="505.225" y1="385.768" x2="-980.107" y2="1076.92" gradientUnits="userSpaceOnUse">
<stop stop-color="#69B7FF"/>
<stop offset="0.452143" stop-color="#223859"/>
<stop offset="1" stop-color="#070719"/>
</linearGradient>
<linearGradient id="paint80_linear_74_4805" x1="505.225" y1="385.768" x2="-980.107" y2="1076.92" gradientUnits="userSpaceOnUse">
<stop stop-color="#69B7FF"/>
<stop offset="0.452143" stop-color="#223859"/>
<stop offset="1" stop-color="#070719"/>
</linearGradient>
<linearGradient id="paint81_linear_74_4805" x1="505.225" y1="385.768" x2="-980.107" y2="1076.92" gradientUnits="userSpaceOnUse">
<stop stop-color="#69B7FF"/>
<stop offset="0.452143" stop-color="#223859"/>
<stop offset="1" stop-color="#070719"/>
</linearGradient>
<linearGradient id="paint82_linear_74_4805" x1="505.225" y1="385.768" x2="-980.107" y2="1076.92" gradientUnits="userSpaceOnUse">
<stop stop-color="#69B7FF"/>
<stop offset="0.452143" stop-color="#223859"/>
<stop offset="1" stop-color="#070719"/>
</linearGradient>
<linearGradient id="paint83_linear_74_4805" x1="505.225" y1="385.768" x2="-980.107" y2="1076.92" gradientUnits="userSpaceOnUse">
<stop stop-color="#69B7FF"/>
<stop offset="0.452143" stop-color="#223859"/>
<stop offset="1" stop-color="#070719"/>
</linearGradient>
<linearGradient id="paint84_linear_74_4805" x1="505.225" y1="385.768" x2="-980.107" y2="1076.92" gradientUnits="userSpaceOnUse">
<stop stop-color="#69B7FF"/>
<stop offset="0.452143" stop-color="#223859"/>
<stop offset="1" stop-color="#070719"/>
</linearGradient>
<linearGradient id="paint85_linear_74_4805" x1="505.225" y1="385.768" x2="-980.107" y2="1076.92" gradientUnits="userSpaceOnUse">
<stop stop-color="#69B7FF"/>
<stop offset="0.452143" stop-color="#223859"/>
<stop offset="1" stop-color="#070719"/>
</linearGradient>
<linearGradient id="paint86_linear_74_4805" x1="505.225" y1="385.768" x2="-980.107" y2="1076.92" gradientUnits="userSpaceOnUse">
<stop stop-color="#69B7FF"/>
<stop offset="0.452143" stop-color="#223859"/>
<stop offset="1" stop-color="#070719"/>
</linearGradient>
<linearGradient id="paint87_linear_74_4805" x1="505.225" y1="385.768" x2="-980.107" y2="1076.92" gradientUnits="userSpaceOnUse">
<stop stop-color="#69B7FF"/>
<stop offset="0.452143" stop-color="#223859"/>
<stop offset="1" stop-color="#070719"/>
</linearGradient>
<linearGradient id="paint88_linear_74_4805" x1="505.225" y1="385.768" x2="-980.107" y2="1076.92" gradientUnits="userSpaceOnUse">
<stop stop-color="#69B7FF"/>
<stop offset="0.452143" stop-color="#223859"/>
<stop offset="1" stop-color="#070719"/>
</linearGradient>
<linearGradient id="paint89_linear_74_4805" x1="505.225" y1="385.768" x2="-980.107" y2="1076.92" gradientUnits="userSpaceOnUse">
<stop stop-color="#69B7FF"/>
<stop offset="0.452143" stop-color="#223859"/>
<stop offset="1" stop-color="#070719"/>
</linearGradient>
<linearGradient id="paint90_linear_74_4805" x1="505.225" y1="385.768" x2="-980.107" y2="1076.92" gradientUnits="userSpaceOnUse">
<stop stop-color="#69B7FF"/>
<stop offset="0.452143" stop-color="#223859"/>
<stop offset="1" stop-color="#070719"/>
</linearGradient>
<linearGradient id="paint91_linear_74_4805" x1="505.225" y1="385.768" x2="-980.107" y2="1076.92" gradientUnits="userSpaceOnUse">
<stop stop-color="#69B7FF"/>
<stop offset="0.452143" stop-color="#223859"/>
<stop offset="1" stop-color="#070719"/>
</linearGradient>
<linearGradient id="paint92_linear_74_4805" x1="505.225" y1="385.768" x2="-980.107" y2="1076.92" gradientUnits="userSpaceOnUse">
<stop stop-color="#69B7FF"/>
<stop offset="0.452143" stop-color="#223859"/>
<stop offset="1" stop-color="#070719"/>
</linearGradient>
<linearGradient id="paint93_linear_74_4805" x1="505.225" y1="385.768" x2="-980.107" y2="1076.92" gradientUnits="userSpaceOnUse">
<stop stop-color="#69B7FF"/>
<stop offset="0.452143" stop-color="#223859"/>
<stop offset="1" stop-color="#070719"/>
</linearGradient>
<linearGradient id="paint94_linear_74_4805" x1="505.225" y1="385.768" x2="-980.107" y2="1076.92" gradientUnits="userSpaceOnUse">
<stop stop-color="#69B7FF"/>
<stop offset="0.452143" stop-color="#223859"/>
<stop offset="1" stop-color="#070719"/>
</linearGradient>
<linearGradient id="paint95_linear_74_4805" x1="505.225" y1="385.768" x2="-980.107" y2="1076.92" gradientUnits="userSpaceOnUse">
<stop stop-color="#69B7FF"/>
<stop offset="0.452143" stop-color="#223859"/>
<stop offset="1" stop-color="#070719"/>
</linearGradient>
<linearGradient id="paint96_linear_74_4805" x1="505.225" y1="385.768" x2="-980.107" y2="1076.92" gradientUnits="userSpaceOnUse">
<stop stop-color="#69B7FF"/>
<stop offset="0.452143" stop-color="#223859"/>
<stop offset="1" stop-color="#070719"/>
</linearGradient>
<linearGradient id="paint97_linear_74_4805" x1="505.225" y1="385.768" x2="-980.107" y2="1076.92" gradientUnits="userSpaceOnUse">
<stop stop-color="#69B7FF"/>
<stop offset="0.452143" stop-color="#223859"/>
<stop offset="1" stop-color="#070719"/>
</linearGradient>
<linearGradient id="paint98_linear_74_4805" x1="505.225" y1="385.768" x2="-980.107" y2="1076.92" gradientUnits="userSpaceOnUse">
<stop stop-color="#69B7FF"/>
<stop offset="0.452143" stop-color="#223859"/>
<stop offset="1" stop-color="#070719"/>
</linearGradient>
<linearGradient id="paint99_linear_74_4805" x1="505.225" y1="385.768" x2="-980.107" y2="1076.92" gradientUnits="userSpaceOnUse">
<stop stop-color="#69B7FF"/>
<stop offset="0.452143" stop-color="#223859"/>
<stop offset="1" stop-color="#070719"/>
</linearGradient>
<linearGradient id="paint100_linear_74_4805" x1="505.225" y1="385.768" x2="-980.107" y2="1076.92" gradientUnits="userSpaceOnUse">
<stop stop-color="#69B7FF"/>
<stop offset="0.452143" stop-color="#223859"/>
<stop offset="1" stop-color="#070719"/>
</linearGradient>
<linearGradient id="paint101_linear_74_4805" x1="505.225" y1="385.768" x2="-980.107" y2="1076.92" gradientUnits="userSpaceOnUse">
<stop stop-color="#69B7FF"/>
<stop offset="0.452143" stop-color="#223859"/>
<stop offset="1" stop-color="#070719"/>
</linearGradient>
<linearGradient id="paint102_linear_74_4805" x1="505.225" y1="385.768" x2="-980.107" y2="1076.92" gradientUnits="userSpaceOnUse">
<stop stop-color="#69B7FF"/>
<stop offset="0.452143" stop-color="#223859"/>
<stop offset="1" stop-color="#070719"/>
</linearGradient>
<linearGradient id="paint103_linear_74_4805" x1="505.225" y1="385.768" x2="-980.107" y2="1076.92" gradientUnits="userSpaceOnUse">
<stop stop-color="#69B7FF"/>
<stop offset="0.452143" stop-color="#223859"/>
<stop offset="1" stop-color="#070719"/>
</linearGradient>
<linearGradient id="paint104_linear_74_4805" x1="505.225" y1="385.768" x2="-980.107" y2="1076.92" gradientUnits="userSpaceOnUse">
<stop stop-color="#69B7FF"/>
<stop offset="0.452143" stop-color="#223859"/>
<stop offset="1" stop-color="#070719"/>
</linearGradient>
<linearGradient id="paint105_linear_74_4805" x1="505.225" y1="385.768" x2="-980.107" y2="1076.92" gradientUnits="userSpaceOnUse">
<stop stop-color="#69B7FF"/>
<stop offset="0.452143" stop-color="#223859"/>
<stop offset="1" stop-color="#070719"/>
</linearGradient>
<linearGradient id="paint106_linear_74_4805" x1="505.225" y1="385.768" x2="-980.107" y2="1076.92" gradientUnits="userSpaceOnUse">
<stop stop-color="#69B7FF"/>
<stop offset="0.452143" stop-color="#223859"/>
<stop offset="1" stop-color="#070719"/>
</linearGradient>
<linearGradient id="paint107_linear_74_4805" x1="505.225" y1="385.768" x2="-980.107" y2="1076.92" gradientUnits="userSpaceOnUse">
<stop stop-color="#69B7FF"/>
<stop offset="0.452143" stop-color="#223859"/>
<stop offset="1" stop-color="#070719"/>
</linearGradient>
<linearGradient id="paint108_linear_74_4805" x1="505.225" y1="385.768" x2="-980.107" y2="1076.92" gradientUnits="userSpaceOnUse">
<stop stop-color="#69B7FF"/>
<stop offset="0.452143" stop-color="#223859"/>
<stop offset="1" stop-color="#070719"/>
</linearGradient>
<linearGradient id="paint109_linear_74_4805" x1="505.225" y1="385.768" x2="-980.107" y2="1076.92" gradientUnits="userSpaceOnUse">
<stop stop-color="#69B7FF"/>
<stop offset="0.452143" stop-color="#223859"/>
<stop offset="1" stop-color="#070719"/>
</linearGradient>
<linearGradient id="paint110_linear_74_4805" x1="505.225" y1="385.768" x2="-980.107" y2="1076.92" gradientUnits="userSpaceOnUse">
<stop stop-color="#69B7FF"/>
<stop offset="0.452143" stop-color="#223859"/>
<stop offset="1" stop-color="#070719"/>
</linearGradient>
<linearGradient id="paint111_linear_74_4805" x1="505.225" y1="385.768" x2="-980.107" y2="1076.92" gradientUnits="userSpaceOnUse">
<stop stop-color="#69B7FF"/>
<stop offset="0.452143" stop-color="#223859"/>
<stop offset="1" stop-color="#070719"/>
</linearGradient>
<linearGradient id="paint112_linear_74_4805" x1="505.225" y1="385.768" x2="-980.107" y2="1076.92" gradientUnits="userSpaceOnUse">
<stop stop-color="#69B7FF"/>
<stop offset="0.452143" stop-color="#223859"/>
<stop offset="1" stop-color="#070719"/>
</linearGradient>
<linearGradient id="paint113_linear_74_4805" x1="505.225" y1="385.768" x2="-980.107" y2="1076.92" gradientUnits="userSpaceOnUse">
<stop stop-color="#69B7FF"/>
<stop offset="0.452143" stop-color="#223859"/>
<stop offset="1" stop-color="#070719"/>
</linearGradient>
<linearGradient id="paint114_linear_74_4805" x1="505.225" y1="385.768" x2="-980.107" y2="1076.92" gradientUnits="userSpaceOnUse">
<stop stop-color="#69B7FF"/>
<stop offset="0.452143" stop-color="#223859"/>
<stop offset="1" stop-color="#070719"/>
</linearGradient>
<linearGradient id="paint115_linear_74_4805" x1="505.225" y1="385.768" x2="-980.107" y2="1076.92" gradientUnits="userSpaceOnUse">
<stop stop-color="#69B7FF"/>
<stop offset="0.452143" stop-color="#223859"/>
<stop offset="1" stop-color="#070719"/>
</linearGradient>
<linearGradient id="paint116_linear_74_4805" x1="505.225" y1="385.768" x2="-980.107" y2="1076.92" gradientUnits="userSpaceOnUse">
<stop stop-color="#69B7FF"/>
<stop offset="0.452143" stop-color="#223859"/>
<stop offset="1" stop-color="#070719"/>
</linearGradient>
<linearGradient id="paint117_linear_74_4805" x1="505.225" y1="385.768" x2="-980.107" y2="1076.92" gradientUnits="userSpaceOnUse">
<stop stop-color="#69B7FF"/>
<stop offset="0.452143" stop-color="#223859"/>
<stop offset="1" stop-color="#070719"/>
</linearGradient>
<linearGradient id="paint118_linear_74_4805" x1="505.225" y1="385.768" x2="-980.107" y2="1076.92" gradientUnits="userSpaceOnUse">
<stop stop-color="#69B7FF"/>
<stop offset="0.452143" stop-color="#223859"/>
<stop offset="1" stop-color="#070719"/>
</linearGradient>
<linearGradient id="paint119_linear_74_4805" x1="871.885" y1="144.053" x2="901.1" y2="390.071" gradientUnits="userSpaceOnUse">
<stop stop-color="#070719"/>
<stop offset="0.46875" stop-color="#65B4FD"/>
<stop offset="1" stop-color="#070719"/>
</linearGradient>
<linearGradient id="paint120_linear_74_4805" x1="166.121" y1="380.846" x2="399.838" y2="506.93" gradientUnits="userSpaceOnUse">
<stop stop-color="#070719"/>
<stop offset="0.46875" stop-color="#65B4FD"/>
<stop offset="1" stop-color="#070719"/>
</linearGradient>
</defs>
</svg>
