<svg xmlns="http://www.w3.org/2000/svg" viewBox="0 0 121 120" width="86" height="85"><path fill="none" fill-rule="evenodd" d="M.6 0h120v120H.6z"></path><path fill="#059669" d="M72.43 55.16L57.92 97.43a28.22 28.22 0 1 1-35.26-33.7l43.48-14.87L77.56 15.6a21.6 21.6 0 0 1 42.04 7.01v.58c0 9.49-6.03 17.92-15 20.99l-32.17 11zm-41.95 55.89c9.62 0 17.67-6.72 19.71-15.72l.02-.09A20.21 20.21 0 0 0 25 71.37l-1.76.6v-.01a20.22 20.22 0 0 0 7.23 39.09zm12.13-45.7a28.33 28.33 0 0 1 13.3 13.27l6.94-20.18-20.24 6.92zM75.72 45.6L102 36.6a14.18 14.18 0 0 0 9.6-13.42v-.58a13.6 13.6 0 0 0-26.47-4.41l-9.41 27.4zM97.6 29a6 6 0 1 0 0-12 6 6 0 0 0 0 12z"></path></svg>