<svg xmlns="http://www.w3.org/2000/svg" viewBox="0 0 108 103" width="86" height="85"><path fill="#059669" fill-rule="evenodd" d="M105.86 5.26l-.53-2.56-2.57-.54-3.74-.78A49 49 0 0 0 54.37 14.7L42.49 26.58a19 19 0 0 0-24.6 1.94L5.13 41.26l5.66 5.66 12.74-12.74a11 11 0 0 1 13.17-1.82L12.7 56.37 9.87 59.2l2.83 2.83 6.1 6.1c-.28.12-.57.25-.84.4-4.29 2.19-7.44 6.63-9.68 10.77A75.28 75.28 0 0 0 3.1 91.85a95.6 95.6 0 0 0-1.71 6.07l-.02.1-.01.02v.01l3.9.9-3.9-.9-1.12 4.9h5.02c7.62 0 18.9-2.63 26.33-7.43 2.85-1.84 5.62-4.32 7.1-7.51l7.3 7.32 2.84 2.82 2.83-2.82 24-24.01a11 11 0 0 1-1.81 13.16L61.1 97.23l5.66 5.65L79.5 90.14a19 19 0 0 0 1.94-24.6l11.88-11.88A49 49 0 0 0 106.64 9l-.78-3.74zM33.83 71.84c.55.5 1.06 1.02 1.54 1.55l13.46 13.45L87.67 48A41 41 0 0 0 98.8 10.64l-.24-1.18-1.18-.25a41 41 0 0 0-37.37 11.15L21.18 59.2l12.65 12.64zm-5.77 5.57l.23.2 1.06 1.07.3.3c2.08 2.31 2.21 3.87 2.06 4.74-.23 1.34-1.47 3.14-4.46 5.08-4.41 2.85-10.93 4.87-16.6 5.71l.08-.23a67.38 67.38 0 0 1 4.6-11.17c2.05-3.82 4.24-6.42 6.27-7.46a3.9 3.9 0 0 1 2.58-.44c.9.16 2.2.71 3.88 2.2zM76.6 36a6 6 0 1 0 0-12 6 6 0 0 0 0 12z"></path></svg>